<svg width="1024" height="325" viewBox="0 0 1024 325" fill="none" xmlns="http://www.w3.org/2000/svg">
<g clip-path="url(#clip0_14101_171732)">
<rect width="1024" height="325" fill="#F2F2F5"/>
<circle cx="887" cy="162" r="570" fill="#817AFE" fill-opacity="0.03"/>
<circle cx="887" cy="162" r="457" fill="#817AFE" fill-opacity="0.03"/>
<circle cx="887" cy="162" r="352" fill="#817AFE" fill-opacity="0.03"/>
<circle cx="887" cy="162" r="260" fill="#817AFE" fill-opacity="0.03"/>
<circle cx="887" cy="162" r="184" fill="#817AFE" fill-opacity="0.05"/>
<circle cx="887" cy="162" r="111" fill="#615BC2" fill-opacity="0.05"/>
<g opacity="0.3">
<line x1="31.5" y1="766.5" x2="31.5" y2="-0.5" stroke="#BDBDBF" stroke-linecap="square" stroke-dasharray="1 4"/>
<line x1="71.5" y1="766.5" x2="71.5" y2="-0.5" stroke="#BDBDBF" stroke-linecap="square" stroke-dasharray="1 4"/>
<line x1="111.5" y1="766.5" x2="111.5" y2="-0.5" stroke="#BDBDBF" stroke-linecap="square" stroke-dasharray="1 4"/>
<line x1="151.5" y1="766.5" x2="151.5" y2="-0.5" stroke="#BDBDBF" stroke-linecap="square" stroke-dasharray="1 4"/>
<line x1="191.5" y1="766.5" x2="191.5" y2="-0.5" stroke="#BDBDBF" stroke-linecap="square" stroke-dasharray="1 4"/>
<line x1="231.5" y1="766.5" x2="231.5" y2="-0.5" stroke="#BDBDBF" stroke-linecap="square" stroke-dasharray="1 4"/>
<line x1="271.5" y1="766.5" x2="271.5" y2="-0.5" stroke="#BDBDBF" stroke-linecap="square" stroke-dasharray="1 4"/>
<line x1="311.5" y1="766.5" x2="311.5" y2="-0.5" stroke="#BDBDBF" stroke-linecap="square" stroke-dasharray="1 4"/>
<line x1="351.5" y1="766.5" x2="351.5" y2="-0.5" stroke="#BDBDBF" stroke-linecap="square" stroke-dasharray="1 4"/>
<line x1="391.5" y1="766.5" x2="391.5" y2="-0.5" stroke="#BDBDBF" stroke-linecap="square" stroke-dasharray="1 4"/>
<line x1="431.5" y1="766.5" x2="431.5" y2="-0.5" stroke="#BDBDBF" stroke-linecap="square" stroke-dasharray="1 4"/>
<line x1="471.5" y1="766.5" x2="471.5" y2="-0.5" stroke="#BDBDBF" stroke-linecap="square" stroke-dasharray="1 4"/>
<line x1="511.5" y1="766.5" x2="511.5" y2="-0.5" stroke="#BDBDBF" stroke-linecap="square" stroke-dasharray="1 4"/>
<line x1="551.5" y1="766.5" x2="551.5" y2="-0.5" stroke="#BDBDBF" stroke-linecap="square" stroke-dasharray="1 4"/>
<line x1="591.5" y1="766.5" x2="591.5" y2="-0.5" stroke="#BDBDBF" stroke-linecap="square" stroke-dasharray="1 4"/>
<line x1="631.5" y1="766.5" x2="631.5" y2="-0.5" stroke="#BDBDBF" stroke-linecap="square" stroke-dasharray="1 4"/>
<line x1="671.5" y1="766.5" x2="671.5" y2="-0.5" stroke="#BDBDBF" stroke-linecap="square" stroke-dasharray="1 4"/>
<line x1="711.5" y1="766.5" x2="711.5" y2="-0.5" stroke="#BDBDBF" stroke-linecap="square" stroke-dasharray="1 4"/>
<line x1="751.5" y1="766.5" x2="751.5" y2="-0.5" stroke="#BDBDBF" stroke-linecap="square" stroke-dasharray="1 4"/>
<line x1="791.5" y1="766.5" x2="791.5" y2="-0.5" stroke="#BDBDBF" stroke-linecap="square" stroke-dasharray="1 4"/>
<line x1="831.5" y1="766.5" x2="831.5" y2="-0.5" stroke="#BDBDBF" stroke-linecap="square" stroke-dasharray="1 4"/>
<line x1="871.5" y1="766.5" x2="871.5" y2="-0.5" stroke="#BDBDBF" stroke-linecap="square" stroke-dasharray="1 4"/>
<line x1="911.5" y1="766.5" x2="911.5" y2="-0.5" stroke="#BDBDBF" stroke-linecap="square" stroke-dasharray="1 4"/>
<line x1="951.5" y1="766.5" x2="951.5" y2="-0.5" stroke="#BDBDBF" stroke-linecap="square" stroke-dasharray="1 4"/>
<line x1="991.5" y1="766.5" x2="991.5" y2="-0.5" stroke="#BDBDBF" stroke-linecap="square" stroke-dasharray="1 4"/>
<line x1="0.5" y1="22.5" x2="1023.5" y2="22.5" stroke="#BDBDBF" stroke-linecap="square" stroke-dasharray="1 4"/>
<line x1="0.5" y1="62.5" x2="1023.5" y2="62.5" stroke="#BDBDBF" stroke-linecap="square" stroke-dasharray="1 4"/>
<line x1="0.5" y1="102.5" x2="1023.5" y2="102.5" stroke="#BDBDBF" stroke-linecap="square" stroke-dasharray="1 4"/>
<line x1="0.5" y1="142.5" x2="1023.5" y2="142.5" stroke="#BDBDBF" stroke-linecap="square" stroke-dasharray="1 4"/>
<line x1="0.5" y1="182.5" x2="1023.5" y2="182.5" stroke="#BDBDBF" stroke-linecap="square" stroke-dasharray="1 4"/>
<line x1="0.5" y1="222.5" x2="1023.5" y2="222.5" stroke="#BDBDBF" stroke-linecap="square" stroke-dasharray="1 4"/>
<line x1="0.5" y1="262.5" x2="1023.5" y2="262.5" stroke="#BDBDBF" stroke-linecap="square" stroke-dasharray="1 4"/>
<line x1="0.5" y1="302.5" x2="1023.5" y2="302.5" stroke="#BDBDBF" stroke-linecap="square" stroke-dasharray="1 4"/>
</g>
<g filter="url(#filter0_d_14101_171732)">
<path d="M172 73C172 66.3726 177.373 61 184 61H315.405C319.688 61 323.858 59.6248 327.302 57.0768L364.048 29.8847C369.212 26.0628 375.468 24 381.893 24H456.107C462.532 24 468.788 26.0628 473.952 29.8847L510.698 57.0768C514.142 59.6248 518.312 61 522.595 61H654C660.627 61 666 66.3726 666 73V289C666 295.627 660.627 301 654 301H184C177.373 301 172 295.627 172 289V73Z" fill="white" fill-opacity="0.8" shape-rendering="crispEdges"/>
<path d="M665 73V289C665 295.075 660.075 300 654 300H184C177.925 300 173 295.075 173 289V73C173 66.9249 177.925 62 184 62H315.405C319.902 62 324.281 60.556 327.896 57.8807L364.642 30.6886C369.635 26.994 375.682 25 381.893 25H456.107C462.318 25 468.365 26.994 473.358 30.6886L510.104 57.8807C513.719 60.556 518.098 62 522.595 62H654C660.075 62 665 66.9249 665 73Z" stroke="#78B312" stroke-width="2" shape-rendering="crispEdges"/>
</g>
<rect x="198" y="89" width="310" height="186" rx="12" fill="#F1F0FC"/>
<path d="M346.608 152.84L343.067 158.541V162H341.126V158.637L337.571 152.84H339.8L342.083 156.695L344.38 152.84H346.608ZM350.519 154.918C351.193 154.918 351.808 155.082 352.364 155.41C352.92 155.729 353.367 156.167 353.704 156.723C354.05 157.27 354.224 157.885 354.224 158.568C354.224 159.252 354.05 159.867 353.704 160.414C353.367 160.961 352.92 161.398 352.364 161.727C351.808 162.046 351.193 162.205 350.519 162.205C349.853 162.205 349.238 162.046 348.673 161.727C348.117 161.398 347.67 160.961 347.333 160.414C346.996 159.867 346.827 159.252 346.827 158.568C346.827 157.885 346.996 157.27 347.333 156.723C347.67 156.167 348.117 155.729 348.673 155.41C349.238 155.082 349.853 154.918 350.519 154.918ZM350.519 156.6C350.19 156.6 349.885 156.677 349.603 156.832C349.32 156.987 349.092 157.21 348.919 157.502C348.755 157.794 348.673 158.149 348.673 158.568C348.673 158.988 348.755 159.343 348.919 159.635C349.092 159.926 349.32 160.15 349.603 160.305C349.885 160.451 350.19 160.523 350.519 160.523C350.847 160.523 351.152 160.451 351.435 160.305C351.717 160.15 351.945 159.926 352.118 159.635C352.291 159.343 352.378 158.988 352.378 158.568C352.378 158.149 352.291 157.794 352.118 157.502C351.945 157.21 351.717 156.987 351.435 156.832C351.152 156.677 350.847 156.6 350.519 156.6ZM361.962 155.096V159.211C361.962 159.822 361.825 160.35 361.552 160.797C361.278 161.234 360.905 161.572 360.431 161.809C359.966 162.046 359.437 162.164 358.845 162.164C358.243 162.164 357.705 162.046 357.231 161.809C356.767 161.572 356.397 161.234 356.124 160.797C355.86 160.35 355.728 159.822 355.728 159.211V155.096H357.478L357.491 158.896C357.491 159.434 357.614 159.835 357.86 160.1C358.106 160.364 358.435 160.496 358.845 160.496C359.246 160.496 359.569 160.364 359.815 160.1C360.071 159.835 360.198 159.434 360.198 158.896V155.096H361.962ZM368.292 157.037C368 156.873 367.695 156.791 367.376 156.791C366.975 156.791 366.642 156.923 366.378 157.188C366.114 157.443 365.881 157.762 365.681 158.145V162H363.944V155.096H365.681V156.395C365.918 155.984 366.196 155.643 366.515 155.369C366.843 155.096 367.212 154.959 367.622 154.959C367.868 154.959 368.091 155 368.292 155.082V157.037ZM317.911 174.918C318.285 174.918 318.663 175.005 319.046 175.178C319.429 175.351 319.748 175.583 320.003 175.875V175.096H321.739V182H320.003V180.838C319.802 181.212 319.511 181.535 319.128 181.809C318.745 182.073 318.299 182.205 317.788 182.205C317.232 182.205 316.717 182.064 316.243 181.781C315.778 181.499 315.405 181.089 315.122 180.551C314.84 180.013 314.698 179.361 314.698 178.596C314.698 177.83 314.84 177.174 315.122 176.627C315.414 176.08 315.801 175.661 316.284 175.369C316.776 175.068 317.319 174.918 317.911 174.918ZM318.267 176.613C317.902 176.613 317.588 176.709 317.323 176.9C317.068 177.083 316.868 177.324 316.722 177.625C316.576 177.926 316.503 178.249 316.503 178.596C316.503 179.115 316.658 179.557 316.968 179.922C317.287 180.286 317.706 180.469 318.226 180.469C318.535 180.469 318.823 180.387 319.087 180.223C319.36 180.059 319.579 179.831 319.743 179.539C319.916 179.238 320.003 178.878 320.003 178.459V177.475C319.757 177.21 319.488 177.001 319.196 176.846C318.914 176.691 318.604 176.613 318.267 176.613ZM327.823 174.918C328.37 174.918 328.876 175.059 329.341 175.342C329.815 175.615 330.193 176.021 330.476 176.559C330.767 177.087 330.913 177.734 330.913 178.5C330.913 179.266 330.767 179.926 330.476 180.482C330.193 181.038 329.806 181.467 329.313 181.768C328.83 182.059 328.293 182.205 327.7 182.205C327.317 182.205 326.935 182.114 326.552 181.932C326.178 181.74 325.864 181.503 325.608 181.221V185.281H323.872V175.096H325.608V176.258C325.809 175.884 326.101 175.57 326.483 175.314C326.866 175.05 327.313 174.918 327.823 174.918ZM327.386 176.654C327.076 176.654 326.784 176.736 326.511 176.9C326.237 177.055 326.014 177.279 325.841 177.57C325.677 177.862 325.599 178.213 325.608 178.623V179.621C325.854 179.876 326.119 180.09 326.401 180.264C326.693 180.428 327.007 180.51 327.345 180.51C327.7 180.51 328.01 180.414 328.274 180.223C328.539 180.031 328.744 179.785 328.89 179.484C329.035 179.174 329.108 178.846 329.108 178.5C329.108 177.98 328.949 177.543 328.63 177.188C328.32 176.832 327.905 176.654 327.386 176.654ZM336.519 174.918C337.065 174.918 337.571 175.059 338.036 175.342C338.51 175.615 338.888 176.021 339.171 176.559C339.463 177.087 339.608 177.734 339.608 178.5C339.608 179.266 339.463 179.926 339.171 180.482C338.888 181.038 338.501 181.467 338.009 181.768C337.526 182.059 336.988 182.205 336.396 182.205C336.013 182.205 335.63 182.114 335.247 181.932C334.873 181.74 334.559 181.503 334.304 181.221V185.281H332.567V175.096H334.304V176.258C334.504 175.884 334.796 175.57 335.179 175.314C335.562 175.05 336.008 174.918 336.519 174.918ZM336.081 176.654C335.771 176.654 335.479 176.736 335.206 176.9C334.933 177.055 334.709 177.279 334.536 177.57C334.372 177.862 334.295 178.213 334.304 178.623V179.621C334.55 179.876 334.814 180.09 335.097 180.264C335.388 180.428 335.703 180.51 336.04 180.51C336.396 180.51 336.705 180.414 336.97 180.223C337.234 180.031 337.439 179.785 337.585 179.484C337.731 179.174 337.804 178.846 337.804 178.5C337.804 177.98 337.644 177.543 337.325 177.188C337.015 176.832 336.601 176.654 336.081 176.654ZM342.999 172.156V182H341.263V172.156H342.999ZM346.567 171.5C346.896 171.5 347.178 171.618 347.415 171.855C347.652 172.083 347.771 172.357 347.771 172.676C347.771 172.986 347.652 173.259 347.415 173.496C347.178 173.733 346.896 173.852 346.567 173.852C346.239 173.852 345.957 173.733 345.72 173.496C345.492 173.259 345.378 172.986 345.378 172.676C345.378 172.357 345.492 172.083 345.72 171.855C345.957 171.618 346.239 171.5 346.567 171.5ZM347.579 175.096V182H345.843V176.572H344.735V175.096H347.579ZM352.911 174.918C353.422 174.918 353.841 175 354.169 175.164C354.497 175.328 354.757 175.488 354.948 175.643V177.242C354.711 177.069 354.442 176.923 354.142 176.805C353.85 176.686 353.49 176.627 353.062 176.627C352.715 176.627 352.392 176.714 352.091 176.887C351.799 177.06 351.567 177.292 351.394 177.584C351.22 177.876 351.134 178.208 351.134 178.582C351.134 179.147 351.316 179.612 351.681 179.977C352.045 180.341 352.506 180.523 353.062 180.523C353.49 180.523 353.85 180.469 354.142 180.359C354.442 180.241 354.711 180.095 354.948 179.922V181.508C354.757 181.672 354.497 181.831 354.169 181.986C353.841 182.132 353.422 182.205 352.911 182.205C352.209 182.205 351.585 182.041 351.038 181.713C350.5 181.376 350.072 180.934 349.753 180.387C349.443 179.831 349.288 179.229 349.288 178.582C349.288 178.099 349.375 177.639 349.548 177.201C349.73 176.764 349.985 176.376 350.313 176.039C350.642 175.693 351.024 175.419 351.462 175.219C351.909 175.018 352.392 174.918 352.911 174.918ZM359.228 174.918C359.601 174.918 359.979 175.005 360.362 175.178C360.745 175.351 361.064 175.583 361.319 175.875V175.096H363.056V182H361.319V180.838C361.119 181.212 360.827 181.535 360.444 181.809C360.062 182.073 359.615 182.205 359.104 182.205C358.549 182.205 358.034 182.064 357.56 181.781C357.095 181.499 356.721 181.089 356.438 180.551C356.156 180.013 356.015 179.361 356.015 178.596C356.015 177.83 356.156 177.174 356.438 176.627C356.73 176.08 357.118 175.661 357.601 175.369C358.093 175.068 358.635 174.918 359.228 174.918ZM359.583 176.613C359.218 176.613 358.904 176.709 358.64 176.9C358.384 177.083 358.184 177.324 358.038 177.625C357.892 177.926 357.819 178.249 357.819 178.596C357.819 179.115 357.974 179.557 358.284 179.922C358.603 180.286 359.022 180.469 359.542 180.469C359.852 180.469 360.139 180.387 360.403 180.223C360.677 180.059 360.896 179.831 361.06 179.539C361.233 179.238 361.319 178.878 361.319 178.459V177.475C361.073 177.21 360.804 177.001 360.513 176.846C360.23 176.691 359.92 176.613 359.583 176.613ZM367.69 173.086V175.096H369.604V176.545H367.69V179.525C367.69 179.835 367.759 180.081 367.896 180.264C368.041 180.437 368.256 180.523 368.538 180.523C368.784 180.523 368.994 180.496 369.167 180.441C369.349 180.387 369.518 180.309 369.673 180.209V181.59C369.5 181.763 369.281 181.909 369.017 182.027C368.761 182.146 368.438 182.205 368.046 182.205C367.426 182.205 366.92 182.009 366.528 181.617C366.146 181.216 365.954 180.669 365.954 179.977V176.545H364.71V175.656C365.147 175.501 365.549 175.21 365.913 174.781C366.287 174.353 366.583 173.788 366.802 173.086H367.69ZM372.899 171.5C373.228 171.5 373.51 171.618 373.747 171.855C373.984 172.083 374.103 172.357 374.103 172.676C374.103 172.986 373.984 173.259 373.747 173.496C373.51 173.733 373.228 173.852 372.899 173.852C372.571 173.852 372.289 173.733 372.052 173.496C371.824 173.259 371.71 172.986 371.71 172.676C371.71 172.357 371.824 172.083 372.052 171.855C372.289 171.618 372.571 171.5 372.899 171.5ZM373.911 175.096V182H372.175V176.572H371.067V175.096H373.911ZM379.312 174.918C379.986 174.918 380.601 175.082 381.157 175.41C381.713 175.729 382.16 176.167 382.497 176.723C382.843 177.27 383.017 177.885 383.017 178.568C383.017 179.252 382.843 179.867 382.497 180.414C382.16 180.961 381.713 181.398 381.157 181.727C380.601 182.046 379.986 182.205 379.312 182.205C378.646 182.205 378.031 182.046 377.466 181.727C376.91 181.398 376.463 180.961 376.126 180.414C375.789 179.867 375.62 179.252 375.62 178.568C375.62 177.885 375.789 177.27 376.126 176.723C376.463 176.167 376.91 175.729 377.466 175.41C378.031 175.082 378.646 174.918 379.312 174.918ZM379.312 176.6C378.983 176.6 378.678 176.677 378.396 176.832C378.113 176.987 377.885 177.21 377.712 177.502C377.548 177.794 377.466 178.149 377.466 178.568C377.466 178.988 377.548 179.343 377.712 179.635C377.885 179.926 378.113 180.15 378.396 180.305C378.678 180.451 378.983 180.523 379.312 180.523C379.64 180.523 379.945 180.451 380.228 180.305C380.51 180.15 380.738 179.926 380.911 179.635C381.084 179.343 381.171 178.988 381.171 178.568C381.171 178.149 381.084 177.794 380.911 177.502C380.738 177.21 380.51 176.987 380.228 176.832C379.945 176.677 379.64 176.6 379.312 176.6ZM386.394 175.096V176.08C386.603 175.798 386.886 175.533 387.241 175.287C387.606 175.041 388.021 174.918 388.485 174.918C389.187 174.918 389.775 175.155 390.249 175.629C390.723 176.103 390.96 176.814 390.96 177.762V182H389.224L389.21 177.994C389.21 177.529 389.096 177.183 388.868 176.955C388.649 176.727 388.344 176.613 387.952 176.613C387.642 176.613 387.351 176.714 387.077 176.914C386.813 177.115 386.585 177.352 386.394 177.625V182H384.657V175.096H386.394Z" fill="#6C65E5"/>
<rect x="283" y="122" width="140" height="90" rx="11" stroke="#817AFE" stroke-opacity="0.7" stroke-width="2" stroke-linecap="round"/>
<g clip-path="url(#clip1_14101_171732)">
<path d="M257.622 137.818C257.506 137.908 255.458 139.062 255.458 141.628C255.458 144.596 258.064 145.646 258.142 145.672C258.13 145.736 257.728 147.11 256.768 148.51C255.912 149.742 255.018 150.972 253.658 150.972C252.298 150.972 251.948 150.182 250.378 150.182C248.848 150.182 248.304 150.998 247.06 150.998C245.816 150.998 244.948 149.858 243.95 148.458C242.794 146.814 241.86 144.26 241.86 141.836C241.86 137.948 244.388 135.886 246.876 135.886C248.198 135.886 249.3 136.754 250.13 136.754C250.92 136.754 252.152 135.834 253.656 135.834C254.226 135.834 256.274 135.886 257.622 137.818ZM252.942 134.188C253.564 133.45 254.004 132.426 254.004 131.402C254.004 131.26 253.992 131.116 253.966 131C252.954 131.038 251.75 131.674 251.024 132.516C250.454 133.164 249.922 134.188 249.922 135.226C249.922 135.382 249.948 135.538 249.96 135.588C250.024 135.6 250.128 135.614 250.232 135.614C251.14 135.614 252.282 135.006 252.942 134.188Z" fill="#1A4049"/>
</g>
<rect x="230.5" y="121.5" width="39" height="39" rx="3.5" stroke="#1A4049"/>
<g clip-path="url(#clip2_14101_171732)">
<path d="M247.183 195.148C247.873 195.148 248.432 195.707 248.432 196.397V201.752C248.432 202.441 247.873 203 247.183 203C246.494 203 245.935 202.441 245.935 201.752V196.397C245.935 195.707 246.494 195.149 247.183 195.149V195.148Z" fill="#1A4049"/>
<path d="M244.333 188.71C244.329 188.757 244.326 188.805 244.326 188.854V196.967C244.326 197.84 245.016 198.543 245.874 198.543H254.125C254.982 198.543 255.673 197.84 255.673 196.967V188.854C255.673 188.805 255.671 188.757 255.667 188.71H244.333Z" fill="#1A4049"/>
<path fill-rule="evenodd" clip-rule="evenodd" d="M244.739 183.018C244.802 182.981 244.882 183.003 244.919 183.066L246.236 185.347C246.272 185.41 246.25 185.49 246.187 185.526C246.125 185.563 246.044 185.541 246.008 185.478L244.691 183.197C244.655 183.134 244.676 183.054 244.739 183.018ZM255.261 183.018C255.324 183.054 255.346 183.134 255.309 183.197L253.992 185.478C253.956 185.541 253.876 185.563 253.813 185.526C253.75 185.49 253.728 185.41 253.765 185.347L255.082 183.066C255.118 183.003 255.198 182.981 255.261 183.018Z" fill="#1A4049"/>
<path fill-rule="evenodd" clip-rule="evenodd" d="M254.064 196.397C254.064 195.707 253.505 195.148 252.815 195.148V195.148C252.126 195.148 251.567 195.707 251.567 196.397V201.752C251.567 202.441 252.126 203 252.815 203C253.505 203 254.064 202.441 254.064 201.752V196.397ZM243.568 190.68C243.568 189.991 243.009 189.432 242.32 189.432C241.631 189.432 241.072 189.991 241.072 190.68V196.035C241.072 196.725 241.631 197.284 242.32 197.284C243.009 197.284 243.568 196.725 243.568 196.035V190.68ZM258.927 190.68C258.927 189.991 258.368 189.432 257.679 189.432C256.989 189.432 256.43 189.991 256.43 190.68V196.035C256.43 196.725 256.989 197.284 257.679 197.284C258.368 197.284 258.927 196.725 258.927 196.035V190.68ZM249.372 183.372C246.58 183.641 244.405 185.685 244.37 188.177H255.629C255.594 185.685 253.419 183.641 250.627 183.372H249.372ZM247.678 186.576C248.035 186.575 248.323 186.291 248.322 185.943V185.94C248.321 185.591 248.031 185.31 247.675 185.311C247.318 185.312 247.03 185.595 247.031 185.943V185.947C247.032 186.295 247.322 186.577 247.678 186.576ZM252.499 186.576C252.856 186.575 253.144 186.291 253.143 185.943V185.94C253.142 185.591 252.852 185.31 252.496 185.311C252.139 185.312 251.851 185.595 251.852 185.943V185.947C251.853 186.295 252.143 186.577 252.499 186.576Z" fill="#1A4049"/>
</g>
<rect x="230.5" y="173.5" width="39" height="39" rx="3.5" stroke="#1A4049"/>
<g clip-path="url(#clip3_14101_171732)">
<path d="M456 143.003C457.107 143.003 458.004 142.106 458.004 141C458.004 139.893 457.107 138.996 456 138.996C454.894 138.996 453.997 139.893 453.997 141C453.997 142.106 454.894 143.003 456 143.003Z" fill="#1A4049"/>
<path d="M455.999 145.104C461.937 145.104 466.75 143.266 466.75 140.999C466.75 138.732 461.937 136.895 455.999 136.895C450.062 136.895 445.249 138.732 445.249 140.999C445.249 143.266 450.062 145.104 455.999 145.104Z" stroke="#1A4049"/>
<path d="M452.444 143.052C455.413 148.194 459.411 151.444 461.374 150.31C463.337 149.177 462.522 144.089 459.554 138.947C456.585 133.805 452.587 130.556 450.623 131.689C448.66 132.823 449.475 137.91 452.444 143.052Z" stroke="#1A4049"/>
<path d="M452.445 138.948C449.476 144.09 448.661 149.177 450.624 150.311C452.588 151.444 456.586 148.195 459.555 143.053C462.524 137.911 463.339 132.823 461.375 131.69C459.412 130.556 455.414 133.806 452.445 138.948Z" stroke="#1A4049"/>
</g>
<rect x="436.5" y="121.5" width="39" height="39" rx="3.5" stroke="#1A4049"/>
<g clip-path="url(#clip4_14101_171732)">
<path fill-rule="evenodd" clip-rule="evenodd" d="M466 183H446V203H466V183ZM452.788 198.787L451.258 199.713L451.258 199.713C451.701 200.653 452.574 201.431 454.077 201.431C455.742 201.431 456.883 200.545 456.883 198.599V192.182H455.004V198.572C455.004 199.512 454.614 199.753 453.997 199.753C453.352 199.753 453.084 199.31 452.788 198.787ZM459.434 198.626L457.904 199.512L457.904 199.512C458.454 200.599 459.582 201.432 461.327 201.432C463.113 201.432 464.442 200.505 464.442 198.814C464.442 197.243 463.542 196.545 461.945 195.86L461.475 195.659C460.669 195.31 460.32 195.082 460.32 194.518C460.32 194.061 460.669 193.712 461.22 193.712C461.757 193.712 462.106 193.94 462.428 194.518L463.891 193.578C463.274 192.49 462.415 192.074 461.22 192.074C459.542 192.074 458.468 193.148 458.468 194.558C458.468 196.088 459.367 196.813 460.723 197.391L461.193 197.592C462.052 197.968 462.562 198.196 462.562 198.841C462.562 199.378 462.066 199.767 461.287 199.767C460.361 199.767 459.837 199.284 459.434 198.626Z" fill="#1A4049"/>
</g>
<rect x="436.5" y="173.5" width="39" height="39" rx="3.5" stroke="#1A4049"/>
<path d="M296.695 234.297C297.352 234.297 297.919 234.391 298.398 234.578C298.878 234.755 299.294 235 299.648 235.312V237.5C299.398 237.312 299.138 237.13 298.867 236.953C298.596 236.776 298.289 236.63 297.945 236.516C297.612 236.401 297.216 236.344 296.758 236.344C296.133 236.344 295.565 236.495 295.055 236.797C294.544 237.099 294.138 237.505 293.836 238.016C293.534 238.526 293.383 239.109 293.383 239.766C293.383 240.411 293.534 240.995 293.836 241.516C294.138 242.026 294.544 242.432 295.055 242.734C295.565 243.026 296.133 243.172 296.758 243.172C297.456 243.172 298.039 243.068 298.508 242.859C298.987 242.641 299.419 242.375 299.805 242.062V244.172C299.451 244.495 299.008 244.755 298.477 244.953C297.945 245.141 297.352 245.234 296.695 245.234C295.945 245.234 295.237 245.104 294.57 244.844C293.904 244.573 293.315 244.198 292.805 243.719C292.294 243.229 291.893 242.651 291.602 241.984C291.31 241.318 291.164 240.578 291.164 239.766C291.164 238.953 291.31 238.214 291.602 237.547C291.893 236.88 292.294 236.307 292.805 235.828C293.315 235.339 293.904 234.964 294.57 234.703C295.237 234.432 295.945 234.297 296.695 234.297ZM303.711 233.75V245H301.727V233.75H303.711ZM307.789 233C308.164 233 308.487 233.135 308.758 233.406C309.029 233.667 309.164 233.979 309.164 234.344C309.164 234.698 309.029 235.01 308.758 235.281C308.487 235.552 308.164 235.688 307.789 235.688C307.414 235.688 307.091 235.552 306.82 235.281C306.56 235.01 306.43 234.698 306.43 234.344C306.43 233.979 306.56 233.667 306.82 233.406C307.091 233.135 307.414 233 307.789 233ZM308.945 237.109V245H306.961V238.797H305.695V237.109H308.945ZM314.898 236.906C315.669 236.906 316.331 237.073 316.883 237.406C317.445 237.74 317.872 238.203 318.164 238.797C318.466 239.38 318.617 240.057 318.617 240.828V241.672H312.898C313.003 242.203 313.263 242.63 313.68 242.953C314.096 243.276 314.607 243.438 315.211 243.438C315.784 243.438 316.305 243.323 316.773 243.094C317.242 242.865 317.617 242.63 317.898 242.391L317.883 244.234C317.633 244.453 317.258 244.677 316.758 244.906C316.268 245.125 315.727 245.234 315.133 245.234C314.352 245.234 313.638 245.057 312.992 244.703C312.357 244.349 311.846 243.865 311.461 243.25C311.086 242.635 310.898 241.932 310.898 241.141C310.898 240.37 311.07 239.667 311.414 239.031C311.758 238.396 312.232 237.885 312.836 237.5C313.44 237.104 314.128 236.906 314.898 236.906ZM314.852 238.641C314.362 238.641 313.951 238.792 313.617 239.094C313.284 239.396 313.055 239.802 312.93 240.312H316.711C316.669 239.75 316.461 239.333 316.086 239.062C315.711 238.781 315.299 238.641 314.852 238.641ZM322.414 237.109V238.234C322.654 237.911 322.977 237.609 323.383 237.328C323.799 237.047 324.273 236.906 324.805 236.906C325.607 236.906 326.279 237.177 326.82 237.719C327.362 238.26 327.633 239.073 327.633 240.156V245H325.648L325.633 240.422C325.633 239.891 325.503 239.495 325.242 239.234C324.992 238.974 324.643 238.844 324.195 238.844C323.841 238.844 323.508 238.958 323.195 239.188C322.893 239.417 322.633 239.688 322.414 240V245H320.43V237.109H322.414ZM332.539 234.812V237.109H334.727V238.766H332.539V242.172C332.539 242.526 332.617 242.807 332.773 243.016C332.94 243.214 333.185 243.312 333.508 243.312C333.789 243.312 334.029 243.281 334.227 243.219C334.435 243.156 334.628 243.068 334.805 242.953V244.531C334.607 244.729 334.357 244.896 334.055 245.031C333.763 245.167 333.393 245.234 332.945 245.234C332.237 245.234 331.659 245.01 331.211 244.562C330.773 244.104 330.555 243.479 330.555 242.688V238.766H329.133V237.75C329.633 237.573 330.091 237.24 330.508 236.75C330.935 236.26 331.273 235.615 331.523 234.812H332.539ZM341.258 240.031V241.906H336.555V240.031H341.258ZM345.961 236.906C346.451 236.906 346.904 236.979 347.32 237.125C347.737 237.271 348.06 237.438 348.289 237.625V239.375C348.039 239.208 347.732 239.047 347.367 238.891C347.013 238.734 346.643 238.656 346.258 238.656C345.883 238.656 345.586 238.74 345.367 238.906C345.148 239.073 345.039 239.271 345.039 239.5C345.039 239.667 345.102 239.823 345.227 239.969C345.352 240.104 345.591 240.224 345.945 240.328L346.836 240.625C348.034 240.979 348.633 241.672 348.633 242.703C348.633 243.193 348.492 243.63 348.211 244.016C347.94 244.391 347.57 244.688 347.102 244.906C346.643 245.125 346.133 245.234 345.57 245.234C345.039 245.234 344.523 245.151 344.023 244.984C343.523 244.818 343.143 244.635 342.883 244.438V242.703C343.081 242.839 343.32 242.969 343.602 243.094C343.883 243.219 344.174 243.323 344.477 243.406C344.779 243.479 345.055 243.516 345.305 243.516C345.701 243.516 346.003 243.448 346.211 243.312C346.43 243.167 346.539 242.964 346.539 242.703C346.539 242.505 346.451 242.349 346.273 242.234C346.096 242.12 345.836 242.005 345.492 241.891L344.523 241.547C343.919 241.349 343.503 241.068 343.273 240.703C343.044 240.339 342.93 239.906 342.93 239.406C342.93 238.906 343.055 238.474 343.305 238.109C343.565 237.734 343.924 237.443 344.383 237.234C344.841 237.016 345.367 236.906 345.961 236.906ZM351.977 233C352.352 233 352.674 233.135 352.945 233.406C353.216 233.667 353.352 233.979 353.352 234.344C353.352 234.698 353.216 235.01 352.945 235.281C352.674 235.552 352.352 235.688 351.977 235.688C351.602 235.688 351.279 235.552 351.008 235.281C350.747 235.01 350.617 234.698 350.617 234.344C350.617 233.979 350.747 233.667 351.008 233.406C351.279 233.135 351.602 233 351.977 233ZM353.133 237.109V245H351.148V238.797H349.883V237.109H353.133ZM363.133 233.75V245H361.148V243.672C360.919 244.099 360.586 244.469 360.148 244.781C359.711 245.083 359.201 245.234 358.617 245.234C357.982 245.234 357.393 245.073 356.852 244.75C356.32 244.427 355.893 243.958 355.57 243.344C355.247 242.729 355.086 241.984 355.086 241.109C355.086 240.234 355.247 239.484 355.57 238.859C355.904 238.234 356.346 237.755 356.898 237.422C357.461 237.078 358.081 236.906 358.758 236.906C359.185 236.906 359.617 237.005 360.055 237.203C360.492 237.401 360.857 237.667 361.148 238V233.75H363.133ZM359.164 238.859C358.747 238.859 358.388 238.969 358.086 239.188C357.794 239.396 357.565 239.672 357.398 240.016C357.232 240.349 357.148 240.714 357.148 241.109C357.148 241.703 357.326 242.208 357.68 242.625C358.044 243.042 358.523 243.25 359.117 243.25C359.471 243.25 359.799 243.156 360.102 242.969C360.414 242.781 360.664 242.521 360.852 242.188C361.049 241.844 361.148 241.432 361.148 240.953V239.828C360.867 239.526 360.56 239.292 360.227 239.125C359.904 238.948 359.549 238.859 359.164 238.859ZM369.023 236.906C369.794 236.906 370.456 237.073 371.008 237.406C371.57 237.74 371.997 238.203 372.289 238.797C372.591 239.38 372.742 240.057 372.742 240.828V241.672H367.023C367.128 242.203 367.388 242.63 367.805 242.953C368.221 243.276 368.732 243.438 369.336 243.438C369.909 243.438 370.43 243.323 370.898 243.094C371.367 242.865 371.742 242.63 372.023 242.391L372.008 244.234C371.758 244.453 371.383 244.677 370.883 244.906C370.393 245.125 369.852 245.234 369.258 245.234C368.477 245.234 367.763 245.057 367.117 244.703C366.482 244.349 365.971 243.865 365.586 243.25C365.211 242.635 365.023 241.932 365.023 241.141C365.023 240.37 365.195 239.667 365.539 239.031C365.883 238.396 366.357 237.885 366.961 237.5C367.565 237.104 368.253 236.906 369.023 236.906ZM368.977 238.641C368.487 238.641 368.076 238.792 367.742 239.094C367.409 239.396 367.18 239.802 367.055 240.312H370.836C370.794 239.75 370.586 239.333 370.211 239.062C369.836 238.781 369.424 238.641 368.977 238.641ZM382.445 234.328C383.049 234.328 383.602 234.411 384.102 234.578C384.602 234.745 385.023 234.938 385.367 235.156V237.297C384.992 237.068 384.591 236.854 384.164 236.656C383.737 236.458 383.253 236.359 382.711 236.359C382.44 236.359 382.169 236.401 381.898 236.484C381.638 236.568 381.419 236.693 381.242 236.859C381.076 237.026 380.992 237.24 380.992 237.5C380.992 237.844 381.143 238.104 381.445 238.281C381.747 238.458 382.117 238.635 382.555 238.812L383.836 239.344C384.565 239.656 385.102 240.036 385.445 240.484C385.789 240.932 385.961 241.443 385.961 242.016C385.961 242.641 385.779 243.193 385.414 243.672C385.06 244.141 384.581 244.51 383.977 244.781C383.383 245.052 382.721 245.188 381.992 245.188C381.378 245.188 380.789 245.083 380.227 244.875C379.664 244.667 379.174 244.411 378.758 244.109V241.969C379.216 242.302 379.721 242.583 380.273 242.812C380.826 243.042 381.414 243.156 382.039 243.156C382.477 243.156 382.852 243.073 383.164 242.906C383.477 242.729 383.633 242.469 383.633 242.125C383.633 241.854 383.503 241.635 383.242 241.469C382.992 241.292 382.716 241.146 382.414 241.031L380.805 240.406C379.992 240.094 379.44 239.688 379.148 239.188C378.867 238.677 378.727 238.115 378.727 237.5C378.727 236.865 378.898 236.312 379.242 235.844C379.596 235.365 380.055 234.995 380.617 234.734C381.18 234.464 381.789 234.328 382.445 234.328ZM392.211 234.281C393.315 234.281 394.284 234.505 395.117 234.953C395.951 235.401 396.596 236.026 397.055 236.828C397.523 237.63 397.758 238.573 397.758 239.656C397.758 240.688 397.539 241.625 397.102 242.469C396.664 243.302 396.039 243.964 395.227 244.453C394.414 244.943 393.445 245.188 392.32 245.188C391.602 245.188 390.883 245.151 390.164 245.078C389.456 245.005 388.784 244.906 388.148 244.781V234.688C388.794 234.583 389.456 234.49 390.133 234.406C390.81 234.323 391.503 234.281 392.211 234.281ZM392.258 236.312C391.945 236.312 391.617 236.328 391.273 236.359C390.93 236.391 390.612 236.432 390.32 236.484V242.984C390.633 243.047 390.956 243.094 391.289 243.125C391.633 243.146 391.956 243.156 392.258 243.156C392.945 243.156 393.534 243.01 394.023 242.719C394.513 242.417 394.888 242.005 395.148 241.484C395.409 240.964 395.539 240.38 395.539 239.734C395.539 239.068 395.409 238.479 395.148 237.969C394.888 237.458 394.513 237.057 394.023 236.766C393.534 236.464 392.945 236.312 392.258 236.312ZM402.195 234.531V239.219L406.18 234.531H408.93L404.82 239.109L409.398 245H406.555L403.336 240.766L402.195 242.047V245H400.023V234.531H402.195ZM413.398 236.906C413.888 236.906 414.341 236.979 414.758 237.125C415.174 237.271 415.497 237.438 415.727 237.625V239.375C415.477 239.208 415.169 239.047 414.805 238.891C414.451 238.734 414.081 238.656 413.695 238.656C413.32 238.656 413.023 238.74 412.805 238.906C412.586 239.073 412.477 239.271 412.477 239.5C412.477 239.667 412.539 239.823 412.664 239.969C412.789 240.104 413.029 240.224 413.383 240.328L414.273 240.625C415.471 240.979 416.07 241.672 416.07 242.703C416.07 243.193 415.93 243.63 415.648 244.016C415.378 244.391 415.008 244.688 414.539 244.906C414.081 245.125 413.57 245.234 413.008 245.234C412.477 245.234 411.961 245.151 411.461 244.984C410.961 244.818 410.581 244.635 410.32 244.438V242.703C410.518 242.839 410.758 242.969 411.039 243.094C411.32 243.219 411.612 243.323 411.914 243.406C412.216 243.479 412.492 243.516 412.742 243.516C413.138 243.516 413.44 243.448 413.648 243.312C413.867 243.167 413.977 242.964 413.977 242.703C413.977 242.505 413.888 242.349 413.711 242.234C413.534 242.12 413.273 242.005 412.93 241.891L411.961 241.547C411.357 241.349 410.94 241.068 410.711 240.703C410.482 240.339 410.367 239.906 410.367 239.406C410.367 238.906 410.492 238.474 410.742 238.109C411.003 237.734 411.362 237.443 411.82 237.234C412.279 237.016 412.805 236.906 413.398 236.906Z" fill="#1A4049"/>
<path d="M386 41C381.674 43.5157 378.768 44.3301 374 45.5803V55.3287C374.019 59.6582 377.376 63.7611 381.221 66.0272C382.814 66.966 384.421 67.8067 386 67.9999C387.577 67.7938 389.332 66.9391 390.917 65.9872C394.741 63.6894 398.019 59.5527 398 55.2232V45.5803C393.219 44.3695 390.348 43.4799 386 41Z" fill="#78B312"/>
<path d="M386 41V67.9999C387.577 67.7938 389.333 66.939 390.917 65.9871C394.742 63.6893 398.019 59.5576 398 55.228V45.4409C393.22 44.23 390.348 43.4799 386 41Z" fill="#68A611"/>
<path opacity="0.75" d="M385.304 60.6648C385.798 61.142 386.671 61.0575 386.991 60.4402C389.115 56.4557 390.192 53.7619 393.8 50.0019C393.856 49.9452 393.887 49.8698 393.887 49.7915C393.887 49.7131 393.856 49.6378 393.8 49.581C393.77 49.5511 393.733 49.5272 393.693 49.511C393.653 49.4947 393.611 49.4863 393.567 49.4863C393.524 49.4863 393.481 49.4947 393.441 49.511C393.401 49.5272 393.365 49.5511 393.334 49.581C389.348 53.2008 388.213 54.8002 385.856 58.3357H385.798L382.83 55.3613C381.899 54.4073 380.414 55.8386 381.375 56.7924L385.304 60.6648Z" fill="#437300"/>
<path d="M384.741 60.0144C385.235 60.4916 386.108 60.4071 386.428 59.7898C388.552 55.8053 389.629 53.1115 393.237 49.3515C393.293 49.2948 393.324 49.2194 393.324 49.1411C393.324 49.0627 393.293 48.9874 393.237 48.9306C393.207 48.9007 393.17 48.8768 393.13 48.8606C393.09 48.8443 393.048 48.8359 393.004 48.8359C392.961 48.8359 392.918 48.8443 392.878 48.8606C392.838 48.8768 392.802 48.9007 392.771 48.9306C388.785 52.5504 387.65 54.1498 385.293 57.6853H385.235L382.267 54.7109C381.336 53.7569 379.851 55.1882 380.812 56.142L384.741 60.0144Z" fill="#F7F9FC"/>
<path d="M411.812 49.0312C412.302 49.0312 412.781 49.1146 413.25 49.2812C413.719 49.4479 414.141 49.6927 414.516 50.0156C414.901 50.3385 415.203 50.7292 415.422 51.1875C415.651 51.6354 415.766 52.151 415.766 52.7344C415.766 53.4427 415.583 54.0729 415.219 54.625C414.865 55.1667 414.391 55.5938 413.797 55.9062C413.203 56.2188 412.557 56.375 411.859 56.375C411.391 56.375 410.969 56.3281 410.594 56.2344C410.219 56.1406 409.906 56.0312 409.656 55.9062V59.5H407.484V49.0312H411.812ZM409.656 51.0625V54.1562C409.885 54.25 410.161 54.3333 410.484 54.4062C410.818 54.4688 411.156 54.5 411.5 54.5C412.125 54.5 412.62 54.3281 412.984 53.9844C413.359 53.6302 413.547 53.2135 413.547 52.7344C413.547 52.1823 413.339 51.7656 412.922 51.4844C412.505 51.2031 412.016 51.0625 411.453 51.0625H409.656ZM422.578 53.8281C422.245 53.6406 421.896 53.5469 421.531 53.5469C421.073 53.5469 420.693 53.6979 420.391 54C420.089 54.2917 419.823 54.6562 419.594 55.0938V59.5H417.609V51.6094H419.594V53.0938C419.865 52.625 420.182 52.2344 420.547 51.9219C420.922 51.6094 421.344 51.4531 421.812 51.4531C422.094 51.4531 422.349 51.5 422.578 51.5938V53.8281ZM425.766 47.5C426.141 47.5 426.464 47.6354 426.734 47.9062C427.005 48.1667 427.141 48.4792 427.141 48.8438C427.141 49.1979 427.005 49.5104 426.734 49.7812C426.464 50.0521 426.141 50.1875 425.766 50.1875C425.391 50.1875 425.068 50.0521 424.797 49.7812C424.536 49.5104 424.406 49.1979 424.406 48.8438C424.406 48.4792 424.536 48.1667 424.797 47.9062C425.068 47.6354 425.391 47.5 425.766 47.5ZM426.922 51.6094V59.5H424.938V53.2969H423.672V51.6094H426.922ZM437.047 51.6094L433.312 59.5H432.047L428.359 51.6094H430.672L432.656 56.5L434.734 51.6094H437.047ZM441.078 51.4062C441.505 51.4062 441.938 51.5052 442.375 51.7031C442.812 51.901 443.177 52.1667 443.469 52.5V51.6094H445.453V59.5H443.469V58.1719C443.24 58.599 442.906 58.9688 442.469 59.2812C442.031 59.5833 441.521 59.7344 440.938 59.7344C440.302 59.7344 439.714 59.5729 439.172 59.25C438.641 58.9271 438.214 58.4583 437.891 57.8438C437.568 57.2292 437.406 56.4844 437.406 55.6094C437.406 54.7344 437.568 53.9844 437.891 53.3594C438.224 52.7344 438.667 52.2552 439.219 51.9219C439.781 51.5781 440.401 51.4062 441.078 51.4062ZM441.484 53.3438C441.068 53.3438 440.708 53.4531 440.406 53.6719C440.115 53.8802 439.885 54.1562 439.719 54.5C439.552 54.8438 439.469 55.2135 439.469 55.6094C439.469 56.2031 439.646 56.7083 440 57.125C440.365 57.5417 440.844 57.75 441.438 57.75C441.792 57.75 442.12 57.6562 442.422 57.4688C442.734 57.2812 442.984 57.0208 443.172 56.6875C443.37 56.3438 443.469 55.9323 443.469 55.4531V54.3281C443.188 54.026 442.88 53.7865 442.547 53.6094C442.224 53.4323 441.87 53.3438 441.484 53.3438ZM451.484 51.4062C452.068 51.4062 452.547 51.5 452.922 51.6875C453.297 51.875 453.594 52.0573 453.812 52.2344V54.0625C453.542 53.8646 453.234 53.6979 452.891 53.5625C452.557 53.4271 452.146 53.3594 451.656 53.3594C451.26 53.3594 450.891 53.4583 450.547 53.6562C450.214 53.8542 449.948 54.1198 449.75 54.4531C449.552 54.7865 449.453 55.1667 449.453 55.5938C449.453 56.2396 449.661 56.7708 450.078 57.1875C450.495 57.6042 451.021 57.8125 451.656 57.8125C452.146 57.8125 452.557 57.75 452.891 57.625C453.234 57.4896 453.542 57.3229 453.812 57.125V58.9375C453.594 59.125 453.297 59.3073 452.922 59.4844C452.547 59.651 452.068 59.7344 451.484 59.7344C450.682 59.7344 449.969 59.5469 449.344 59.1719C448.729 58.7865 448.24 58.2812 447.875 57.6562C447.521 57.0208 447.344 56.3333 447.344 55.5938C447.344 55.0417 447.443 54.5156 447.641 54.0156C447.849 53.5156 448.141 53.0729 448.516 52.6875C448.891 52.2917 449.328 51.9792 449.828 51.75C450.339 51.5208 450.891 51.4062 451.484 51.4062ZM456.828 51.6094L459.078 56.6406L461.266 51.6094H463.531L457.797 63.25H455.547L457.922 58.9219L454.516 51.6094H456.828Z" fill="#3B6600"/>
<rect x="535" y="109" width="105" height="36" rx="4" fill="url(#paint0_linear_14101_171732)"/>
<ellipse cx="556" cy="127" rx="6" ry="6" fill="#6A6A83"/>
<ellipse cx="590.8" cy="124.3" rx="1.8" ry="1.8" fill="#6A6A83"/>
<ellipse cx="597.999" cy="124.3" rx="1.80001" ry="1.8" fill="#6A6A83"/>
<ellipse cx="605.2" cy="124.3" rx="1.8" ry="1.8" fill="#6A6A83"/>
<ellipse cx="612.4" cy="124.3" rx="1.79999" ry="1.8" fill="#6A6A83"/>
<ellipse cx="619.601" cy="124.3" rx="1.8" ry="1.8" fill="#6A6A83"/>
<ellipse cx="594.4" cy="129.7" rx="1.8" ry="1.8" fill="#6A6A83"/>
<ellipse cx="601.601" cy="129.7" rx="1.8" ry="1.8" fill="#6A6A83"/>
<ellipse cx="608.8" cy="129.7" rx="1.8" ry="1.8" fill="#6A6A83"/>
<ellipse cx="615.999" cy="129.7" rx="1.8" ry="1.8" fill="#6A6A83"/>
<ellipse cx="623.198" cy="129.7" rx="1.80001" ry="1.8" fill="#6A6A83"/>
<rect x="535" y="149" width="105" height="36" rx="4" fill="url(#paint1_linear_14101_171732)"/>
<ellipse cx="556" cy="167" rx="6" ry="6" fill="#6A6A83"/>
<ellipse cx="590.8" cy="164.3" rx="1.8" ry="1.8" fill="#6A6A83"/>
<ellipse cx="597.999" cy="164.3" rx="1.80001" ry="1.8" fill="#6A6A83"/>
<ellipse cx="605.2" cy="164.3" rx="1.8" ry="1.8" fill="#6A6A83"/>
<ellipse cx="612.4" cy="164.3" rx="1.79999" ry="1.8" fill="#6A6A83"/>
<ellipse cx="619.601" cy="164.3" rx="1.8" ry="1.8" fill="#6A6A83"/>
<ellipse cx="594.4" cy="169.7" rx="1.8" ry="1.8" fill="#6A6A83"/>
<ellipse cx="601.601" cy="169.7" rx="1.8" ry="1.8" fill="#6A6A83"/>
<ellipse cx="608.8" cy="169.7" rx="1.8" ry="1.8" fill="#6A6A83"/>
<ellipse cx="615.999" cy="169.7" rx="1.8" ry="1.8" fill="#6A6A83"/>
<ellipse cx="623.198" cy="169.7" rx="1.80001" ry="1.8" fill="#6A6A83"/>
<rect x="535" y="189" width="105" height="36" rx="4" fill="url(#paint2_linear_14101_171732)"/>
<ellipse cx="556" cy="207" rx="6" ry="6" fill="#6A6A83"/>
<ellipse cx="590.8" cy="204.3" rx="1.8" ry="1.8" fill="#6A6A83"/>
<ellipse cx="597.999" cy="204.3" rx="1.80001" ry="1.8" fill="#6A6A83"/>
<ellipse cx="605.2" cy="204.3" rx="1.8" ry="1.8" fill="#6A6A83"/>
<ellipse cx="612.4" cy="204.3" rx="1.79999" ry="1.8" fill="#6A6A83"/>
<ellipse cx="619.601" cy="204.3" rx="1.8" ry="1.8" fill="#6A6A83"/>
<ellipse cx="594.4" cy="209.7" rx="1.80001" ry="1.8" fill="#6A6A83"/>
<ellipse cx="601.601" cy="209.7" rx="1.8" ry="1.8" fill="#6A6A83"/>
<ellipse cx="608.8" cy="209.7" rx="1.8" ry="1.8" fill="#6A6A83"/>
<ellipse cx="615.999" cy="209.7" rx="1.8" ry="1.8" fill="#6A6A83"/>
<ellipse cx="623.198" cy="209.7" rx="1.80001" ry="1.8" fill="#6A6A83"/>
<path d="M542.773 250.5V256.859C542.773 257.766 542.57 258.547 542.164 259.203C541.768 259.849 541.227 260.349 540.539 260.703C539.862 261.047 539.102 261.219 538.258 261.219C537.414 261.219 536.648 261.047 535.961 260.703C535.273 260.349 534.727 259.849 534.32 259.203C533.924 258.547 533.727 257.766 533.727 256.859V250.5H535.898V256.734C535.898 257.536 536.112 258.141 536.539 258.547C536.977 258.943 537.549 259.135 538.258 259.125C538.956 259.125 539.523 258.927 539.961 258.531C540.398 258.135 540.617 257.536 540.617 256.734V250.5H542.773ZM547.383 253.109V254.234C547.622 253.911 547.945 253.609 548.352 253.328C548.768 253.047 549.242 252.906 549.773 252.906C550.576 252.906 551.247 253.177 551.789 253.719C552.331 254.26 552.602 255.073 552.602 256.156V261H550.617L550.602 256.422C550.602 255.891 550.471 255.495 550.211 255.234C549.961 254.974 549.612 254.844 549.164 254.844C548.81 254.844 548.477 254.958 548.164 255.188C547.862 255.417 547.602 255.688 547.383 256V261H545.398V253.109H547.383ZM556.867 249.75V261H554.883V249.75H556.867ZM562.742 252.906C563.513 252.906 564.174 253.073 564.727 253.406C565.289 253.74 565.716 254.203 566.008 254.797C566.31 255.38 566.461 256.057 566.461 256.828V257.672H560.742C560.846 258.203 561.107 258.63 561.523 258.953C561.94 259.276 562.451 259.438 563.055 259.438C563.628 259.438 564.148 259.323 564.617 259.094C565.086 258.865 565.461 258.63 565.742 258.391L565.727 260.234C565.477 260.453 565.102 260.677 564.602 260.906C564.112 261.125 563.57 261.234 562.977 261.234C562.195 261.234 561.482 261.057 560.836 260.703C560.201 260.349 559.69 259.865 559.305 259.25C558.93 258.635 558.742 257.932 558.742 257.141C558.742 256.37 558.914 255.667 559.258 255.031C559.602 254.396 560.076 253.885 560.68 253.5C561.284 253.104 561.971 252.906 562.742 252.906ZM562.695 254.641C562.206 254.641 561.794 254.792 561.461 255.094C561.128 255.396 560.898 255.802 560.773 256.312H564.555C564.513 255.75 564.305 255.333 563.93 255.062C563.555 254.781 563.143 254.641 562.695 254.641ZM571.398 252.906C571.826 252.906 572.258 253.005 572.695 253.203C573.133 253.401 573.497 253.667 573.789 254V253.109H575.773V261H573.789V259.672C573.56 260.099 573.227 260.469 572.789 260.781C572.352 261.083 571.841 261.234 571.258 261.234C570.622 261.234 570.034 261.073 569.492 260.75C568.961 260.427 568.534 259.958 568.211 259.344C567.888 258.729 567.727 257.984 567.727 257.109C567.727 256.234 567.888 255.484 568.211 254.859C568.544 254.234 568.987 253.755 569.539 253.422C570.102 253.078 570.721 252.906 571.398 252.906ZM571.805 254.844C571.388 254.844 571.029 254.953 570.727 255.172C570.435 255.38 570.206 255.656 570.039 256C569.872 256.344 569.789 256.714 569.789 257.109C569.789 257.703 569.966 258.208 570.32 258.625C570.685 259.042 571.164 259.25 571.758 259.25C572.112 259.25 572.44 259.156 572.742 258.969C573.055 258.781 573.305 258.521 573.492 258.188C573.69 257.844 573.789 257.432 573.789 256.953V255.828C573.508 255.526 573.201 255.286 572.867 255.109C572.544 254.932 572.19 254.844 571.805 254.844ZM580.758 252.906C581.247 252.906 581.701 252.979 582.117 253.125C582.534 253.271 582.857 253.438 583.086 253.625V255.375C582.836 255.208 582.529 255.047 582.164 254.891C581.81 254.734 581.44 254.656 581.055 254.656C580.68 254.656 580.383 254.74 580.164 254.906C579.945 255.073 579.836 255.271 579.836 255.5C579.836 255.667 579.898 255.823 580.023 255.969C580.148 256.104 580.388 256.224 580.742 256.328L581.633 256.625C582.831 256.979 583.43 257.672 583.43 258.703C583.43 259.193 583.289 259.63 583.008 260.016C582.737 260.391 582.367 260.688 581.898 260.906C581.44 261.125 580.93 261.234 580.367 261.234C579.836 261.234 579.32 261.151 578.82 260.984C578.32 260.818 577.94 260.635 577.68 260.438V258.703C577.878 258.839 578.117 258.969 578.398 259.094C578.68 259.219 578.971 259.323 579.273 259.406C579.576 259.479 579.852 259.516 580.102 259.516C580.497 259.516 580.799 259.448 581.008 259.312C581.227 259.167 581.336 258.964 581.336 258.703C581.336 258.505 581.247 258.349 581.07 258.234C580.893 258.12 580.633 258.005 580.289 257.891L579.32 257.547C578.716 257.349 578.299 257.068 578.07 256.703C577.841 256.339 577.727 255.906 577.727 255.406C577.727 254.906 577.852 254.474 578.102 254.109C578.362 253.734 578.721 253.443 579.18 253.234C579.638 253.016 580.164 252.906 580.758 252.906ZM589.492 252.906C590.294 252.906 590.966 253.177 591.508 253.719C592.049 254.26 592.32 255.073 592.32 256.156V261H590.336L590.32 256.422C590.32 255.891 590.19 255.495 589.93 255.234C589.68 254.974 589.331 254.844 588.883 254.844C588.529 254.844 588.195 254.958 587.883 255.188C587.581 255.417 587.32 255.688 587.102 256V261H585.117V249.75H587.102V254.234C587.341 253.911 587.664 253.609 588.07 253.328C588.487 253.047 588.961 252.906 589.492 252.906ZM603.805 252.906C604.43 252.906 605.008 253.068 605.539 253.391C606.081 253.703 606.513 254.167 606.836 254.781C607.169 255.385 607.336 256.125 607.336 257C607.336 257.875 607.169 258.63 606.836 259.266C606.513 259.901 606.07 260.391 605.508 260.734C604.956 261.068 604.341 261.234 603.664 261.234C603.227 261.234 602.789 261.13 602.352 260.922C601.924 260.703 601.565 260.432 601.273 260.109V264.75H599.289V253.109H601.273V254.438C601.503 254.01 601.836 253.651 602.273 253.359C602.711 253.057 603.221 252.906 603.805 252.906ZM603.305 254.891C602.951 254.891 602.617 254.984 602.305 255.172C601.992 255.349 601.737 255.604 601.539 255.938C601.352 256.271 601.263 256.672 601.273 257.141V258.281C601.555 258.573 601.857 258.818 602.18 259.016C602.513 259.203 602.872 259.297 603.258 259.297C603.664 259.297 604.018 259.188 604.32 258.969C604.622 258.75 604.857 258.469 605.023 258.125C605.19 257.771 605.273 257.396 605.273 257C605.273 256.406 605.091 255.906 604.727 255.5C604.372 255.094 603.898 254.891 603.305 254.891ZM614.195 255.328C613.862 255.141 613.513 255.047 613.148 255.047C612.69 255.047 612.31 255.198 612.008 255.5C611.706 255.792 611.44 256.156 611.211 256.594V261H609.227V253.109H611.211V254.594C611.482 254.125 611.799 253.734 612.164 253.422C612.539 253.109 612.961 252.953 613.43 252.953C613.711 252.953 613.966 253 614.195 253.094V255.328ZM619.398 252.906C620.169 252.906 620.872 253.094 621.508 253.469C622.143 253.833 622.654 254.333 623.039 254.969C623.435 255.594 623.633 256.297 623.633 257.078C623.633 257.859 623.435 258.562 623.039 259.188C622.654 259.812 622.143 260.312 621.508 260.688C620.872 261.052 620.169 261.234 619.398 261.234C618.638 261.234 617.935 261.052 617.289 260.688C616.654 260.312 616.143 259.812 615.758 259.188C615.372 258.562 615.18 257.859 615.18 257.078C615.18 256.297 615.372 255.594 615.758 254.969C616.143 254.333 616.654 253.833 617.289 253.469C617.935 253.094 618.638 252.906 619.398 252.906ZM619.398 254.828C619.023 254.828 618.674 254.917 618.352 255.094C618.029 255.271 617.768 255.526 617.57 255.859C617.383 256.193 617.289 256.599 617.289 257.078C617.289 257.557 617.383 257.964 617.57 258.297C617.768 258.63 618.029 258.885 618.352 259.062C618.674 259.229 619.023 259.312 619.398 259.312C619.773 259.312 620.122 259.229 620.445 259.062C620.768 258.885 621.029 258.63 621.227 258.297C621.424 257.964 621.523 257.557 621.523 257.078C621.523 256.599 621.424 256.193 621.227 255.859C621.029 255.526 620.768 255.271 620.445 255.094C620.122 254.917 619.773 254.828 619.398 254.828ZM633.086 253.109L629.992 256.969L633.195 261H630.711L628.742 258.25L626.773 261H624.289L627.492 256.969L624.398 253.109H626.742L628.742 255.641L630.742 253.109H633.086ZM635.82 253.109L638.07 258.141L640.258 253.109H642.523L636.789 264.75H634.539L636.914 260.422L633.508 253.109H635.82Z" fill="#1A4049"/>
<path opacity="0.1" fill-rule="evenodd" clip-rule="evenodd" d="M92.1998 183.878C109.542 183.878 123.6 184.403 123.6 185.05C123.6 185.698 109.541 186.223 92.1998 186.223C74.8582 186.223 60.8008 185.698 60.8008 185.05C60.8008 184.403 74.8582 183.878 92.1998 183.878Z" fill="#1D3238"/>
<path fill-rule="evenodd" clip-rule="evenodd" d="M103.199 179.465C102.163 178.209 101.599 168.09 101.599 168.09H82.3999C82.3999 168.09 81.8353 178.209 80.7996 179.465C78.8 181.889 76.7998 182.294 76.7998 183.102C76.7998 183.91 78.7987 184.314 81.1998 184.314H102.799C105.201 184.314 107.199 183.912 107.199 183.102C107.199 182.293 105.199 181.889 103.199 179.465Z" fill="#A7A8C6"/>
<path opacity="0.5" fill-rule="evenodd" clip-rule="evenodd" d="M102.26 175.084C101.917 173.152 101.812 170.71 101.693 169.279H82.3447C82.3447 169.279 88.8902 175.307 102.26 175.084Z" fill="#2D2C41"/>
<path fill-rule="evenodd" clip-rule="evenodd" d="M104.399 183.803H79.5995C77.6936 183.803 76.7998 183.399 76.7998 182.995C76.7998 183.803 77.1998 184.611 79.5995 184.611H104.4C106.8 184.611 107.2 183.803 107.2 182.995C107.199 183.399 106.306 183.803 104.399 183.803Z" fill="#6A6A83"/>
<path fill-rule="evenodd" clip-rule="evenodd" d="M46.4005 104H137.6V104C138.925 104 140 105.075 140 106.401C140 106.409 140 106.417 140 106.425V167.281C140 167.924 139.747 168.541 139.297 168.995C138.847 169.45 138.236 169.705 137.6 169.705H46.4005C46.0853 169.706 45.7731 169.643 45.4819 169.521C45.1907 169.399 44.9259 169.221 44.703 168.995C44.4801 168.77 44.3035 168.503 44.1829 168.209C44.0623 167.915 44 167.599 44 167.281V106.425C44 106.417 44 106.408 44 106.4C44 105.075 45.0749 104 46.4005 104V104Z" fill="url(#paint3_linear_14101_171732)"/>
<path opacity="0.1" d="M122.369 154.694C122.424 154.718 122.469 154.759 122.498 154.811C122.528 154.862 122.541 154.922 122.535 154.982C122.528 155.041 122.503 155.097 122.464 155.141C122.424 155.185 122.371 155.215 122.313 155.227L119.076 156.129C121.822 159.789 121.683 159.578 121.705 159.674C121.714 159.712 121.715 159.751 121.707 159.789C121.7 159.827 121.685 159.863 121.663 159.894C121.639 159.928 121.609 159.957 121.574 159.978C120.077 160.914 120.12 160.905 120.013 160.924C119.952 160.935 119.888 160.929 119.83 160.907C119.771 160.884 119.72 160.846 119.681 160.797L117.11 157.342C117.077 157.375 114.891 159.757 114.852 159.783C114.808 159.817 114.756 159.839 114.701 159.847C114.646 159.855 114.59 159.848 114.538 159.829C114.486 159.809 114.44 159.777 114.404 159.735C114.367 159.693 114.342 159.642 114.33 159.587C114.32 159.52 112.932 149.986 112.978 149.936C113.066 149.843 112.547 149.681 122.369 154.694Z" fill="#1D3238"/>
<path d="M122.278 154.223C122.332 154.247 122.377 154.288 122.407 154.339C122.437 154.391 122.449 154.451 122.443 154.51C122.437 154.57 122.412 154.625 122.372 154.67C122.332 154.714 122.279 154.744 122.221 154.756L118.985 155.658C121.731 159.318 121.592 159.107 121.614 159.203C121.622 159.24 121.623 159.279 121.616 159.317C121.608 159.355 121.593 159.391 121.571 159.423C121.547 159.457 121.517 159.485 121.482 159.507C119.985 160.442 120.028 160.434 119.922 160.452C119.86 160.464 119.796 160.458 119.738 160.435C119.679 160.413 119.628 160.375 119.589 160.325L117.018 156.87C116.985 156.904 114.799 159.285 114.76 159.312C114.716 159.345 114.664 159.367 114.609 159.375C114.554 159.382 114.498 159.376 114.447 159.357C114.395 159.337 114.348 159.305 114.312 159.263C114.276 159.221 114.25 159.17 114.238 159.116C114.228 159.049 112.84 149.514 112.886 149.464C112.974 149.372 112.455 149.209 122.278 154.223Z" fill="#6A6A83"/>
<path d="M120.298 159.27C120.298 159.27 120.008 160.437 119.923 160.452C119.862 160.463 119.798 160.457 119.74 160.435C119.681 160.413 119.63 160.375 119.591 160.325L117.02 156.87C116.987 156.903 114.801 159.285 114.762 159.311C114.718 159.345 114.666 159.366 114.611 159.374C114.556 159.382 114.5 159.376 114.448 159.357C114.396 159.337 114.35 159.305 114.314 159.263C114.277 159.221 114.252 159.17 114.24 159.115C114.23 159.048 112.888 149.464 112.888 149.464L120.298 159.27Z" fill="#6A6A83"/>
<path opacity="0.3" d="M44 107C44 105.343 45.3431 104 47 104H137C138.657 104 140 105.343 140 107V114.26H44V107Z" fill="#3C4C7B"/>
<path opacity="0.8" fill-rule="evenodd" clip-rule="evenodd" d="M48.3976 107.664C48.6875 107.664 48.9707 107.75 49.2117 107.911C49.4527 108.072 49.6407 108.301 49.7515 108.569C49.8624 108.837 49.8913 109.132 49.8347 109.416C49.7781 109.7 49.6384 109.961 49.4334 110.166C49.2284 110.371 48.9674 110.511 48.6831 110.567C48.3988 110.624 48.1039 110.595 47.8361 110.484C47.5683 110.373 47.3395 110.185 47.1785 109.944C47.0174 109.703 46.9316 109.42 46.9316 109.13C46.9317 108.741 47.0862 108.368 47.3611 108.093C47.636 107.818 48.0088 107.664 48.3976 107.664V107.664Z" fill="#202021"/>
<path opacity="0.8" fill-rule="evenodd" clip-rule="evenodd" d="M52.7943 107.664C53.0842 107.664 53.3674 107.75 53.6084 107.911C53.8495 108.072 54.0373 108.301 54.1483 108.569C54.2592 108.837 54.2883 109.131 54.2318 109.416C54.1752 109.7 54.0358 109.961 53.8308 110.166C53.6258 110.371 53.3645 110.511 53.0802 110.567C52.7958 110.624 52.5012 110.595 52.2334 110.484C51.9656 110.373 51.7365 110.185 51.5754 109.944C51.4144 109.703 51.3286 109.42 51.3286 109.13C51.3287 108.741 51.4829 108.368 51.7578 108.094C52.0326 107.819 52.4056 107.664 52.7943 107.664V107.664Z" fill="#202021"/>
<path opacity="0.8" fill-rule="evenodd" clip-rule="evenodd" d="M57.1912 107.664C57.4811 107.664 57.7643 107.75 58.0053 107.911C58.2464 108.072 58.4345 108.301 58.5455 108.569C58.6564 108.837 58.6852 109.131 58.6287 109.416C58.5721 109.7 58.4327 109.961 58.2277 110.166C58.0227 110.371 57.7614 110.511 57.4771 110.567C57.1928 110.624 56.8982 110.595 56.6304 110.484C56.3625 110.373 56.1335 110.185 55.9724 109.944C55.8114 109.703 55.7256 109.42 55.7256 109.13C55.7256 108.741 55.8798 108.368 56.1547 108.093C56.4296 107.818 56.8025 107.664 57.1912 107.664Z" fill="#202021"/>
<path fill-rule="evenodd" clip-rule="evenodd" d="M65.0466 106.932H129.214C129.743 106.932 130.249 107.163 130.623 107.576C130.997 107.988 131.206 108.547 131.206 109.13V109.13C131.206 109.419 131.155 109.705 131.055 109.971C130.955 110.238 130.808 110.48 130.623 110.685C130.438 110.889 130.218 111.051 129.977 111.161C129.735 111.272 129.476 111.329 129.214 111.329H65.0466C64.5181 111.329 64.0113 111.097 63.6376 110.685C63.2638 110.272 63.0537 109.713 63.0537 109.13C63.0537 108.547 63.2638 107.988 63.6376 107.575C64.0113 107.163 64.5181 106.932 65.0466 106.932Z" fill="#F2F2F5"/>
<rect opacity="0.6" x="52.7939" y="123.053" width="56.4275" height="2.9313" rx="1.46565" fill="#6A6A83"/>
<rect opacity="0.6" x="52.7939" y="129.648" width="78.4122" height="2.9313" rx="1.46565" fill="#6A6A83"/>
<rect opacity="0.6" x="52.7939" y="136.244" width="78.4122" height="2.9313" rx="1.46565" fill="#6A6A83"/>
<path d="M67.3828 216.781V218.547H62.7578V221.078H67.9922V223H60.5859V212.531H67.9922V214.406H62.7578V216.781H67.3828ZM72.4453 215.109V216.234C72.6849 215.911 73.0078 215.609 73.4141 215.328C73.8307 215.047 74.3047 214.906 74.8359 214.906C75.638 214.906 76.3099 215.177 76.8516 215.719C77.3932 216.26 77.6641 217.073 77.6641 218.156V223H75.6797L75.6641 218.422C75.6641 217.891 75.5339 217.495 75.2734 217.234C75.0234 216.974 74.6745 216.844 74.2266 216.844C73.8724 216.844 73.5391 216.958 73.2266 217.188C72.9245 217.417 72.6641 217.688 72.4453 218V223H70.4609V215.109H72.4453ZM87.4453 211.75V223H85.4609V221.672C85.2318 222.099 84.8984 222.469 84.4609 222.781C84.0234 223.083 83.513 223.234 82.9297 223.234C82.2943 223.234 81.7057 223.073 81.1641 222.75C80.6328 222.427 80.2057 221.958 79.8828 221.344C79.5599 220.729 79.3984 219.984 79.3984 219.109C79.3984 218.234 79.5599 217.484 79.8828 216.859C80.2161 216.234 80.6589 215.755 81.2109 215.422C81.7734 215.078 82.3932 214.906 83.0703 214.906C83.4974 214.906 83.9297 215.005 84.3672 215.203C84.8047 215.401 85.1693 215.667 85.4609 216V211.75H87.4453ZM83.4766 216.859C83.0599 216.859 82.7005 216.969 82.3984 217.188C82.1068 217.396 81.8776 217.672 81.7109 218.016C81.5443 218.349 81.4609 218.714 81.4609 219.109C81.4609 219.703 81.638 220.208 81.9922 220.625C82.3568 221.042 82.8359 221.25 83.4297 221.25C83.7839 221.25 84.112 221.156 84.4141 220.969C84.7266 220.781 84.9766 220.521 85.1641 220.188C85.362 219.844 85.4609 219.432 85.4609 218.953V217.828C85.1797 217.526 84.8724 217.292 84.5391 217.125C84.2161 216.948 83.862 216.859 83.4766 216.859ZM101.539 215.109V219.812C101.539 220.51 101.383 221.115 101.07 221.625C100.758 222.125 100.331 222.51 99.7891 222.781C99.2578 223.052 98.6536 223.188 97.9766 223.188C97.2891 223.188 96.6745 223.052 96.1328 222.781C95.6016 222.51 95.1797 222.125 94.8672 221.625C94.5651 221.115 94.4141 220.51 94.4141 219.812V215.109H96.4141L96.4297 219.453C96.4297 220.068 96.5703 220.526 96.8516 220.828C97.1328 221.13 97.5078 221.281 97.9766 221.281C98.4349 221.281 98.8047 221.13 99.0859 220.828C99.3776 220.526 99.5234 220.068 99.5234 219.453V215.109H101.539ZM106.352 214.906C106.841 214.906 107.294 214.979 107.711 215.125C108.128 215.271 108.451 215.438 108.68 215.625V217.375C108.43 217.208 108.122 217.047 107.758 216.891C107.404 216.734 107.034 216.656 106.648 216.656C106.273 216.656 105.977 216.74 105.758 216.906C105.539 217.073 105.43 217.271 105.43 217.5C105.43 217.667 105.492 217.823 105.617 217.969C105.742 218.104 105.982 218.224 106.336 218.328L107.227 218.625C108.424 218.979 109.023 219.672 109.023 220.703C109.023 221.193 108.883 221.63 108.602 222.016C108.331 222.391 107.961 222.688 107.492 222.906C107.034 223.125 106.523 223.234 105.961 223.234C105.43 223.234 104.914 223.151 104.414 222.984C103.914 222.818 103.534 222.635 103.273 222.438V220.703C103.471 220.839 103.711 220.969 103.992 221.094C104.273 221.219 104.565 221.323 104.867 221.406C105.169 221.479 105.445 221.516 105.695 221.516C106.091 221.516 106.393 221.448 106.602 221.312C106.82 221.167 106.93 220.964 106.93 220.703C106.93 220.505 106.841 220.349 106.664 220.234C106.487 220.12 106.227 220.005 105.883 219.891L104.914 219.547C104.31 219.349 103.893 219.068 103.664 218.703C103.435 218.339 103.32 217.906 103.32 217.406C103.32 216.906 103.445 216.474 103.695 216.109C103.956 215.734 104.315 215.443 104.773 215.234C105.232 215.016 105.758 214.906 106.352 214.906ZM114.164 214.906C114.935 214.906 115.596 215.073 116.148 215.406C116.711 215.74 117.138 216.203 117.43 216.797C117.732 217.38 117.883 218.057 117.883 218.828V219.672H112.164C112.268 220.203 112.529 220.63 112.945 220.953C113.362 221.276 113.872 221.438 114.477 221.438C115.049 221.438 115.57 221.323 116.039 221.094C116.508 220.865 116.883 220.63 117.164 220.391L117.148 222.234C116.898 222.453 116.523 222.677 116.023 222.906C115.534 223.125 114.992 223.234 114.398 223.234C113.617 223.234 112.904 223.057 112.258 222.703C111.622 222.349 111.112 221.865 110.727 221.25C110.352 220.635 110.164 219.932 110.164 219.141C110.164 218.37 110.336 217.667 110.68 217.031C111.023 216.396 111.497 215.885 112.102 215.5C112.706 215.104 113.393 214.906 114.164 214.906ZM114.117 216.641C113.628 216.641 113.216 216.792 112.883 217.094C112.549 217.396 112.32 217.802 112.195 218.312H115.977C115.935 217.75 115.727 217.333 115.352 217.062C114.977 216.781 114.565 216.641 114.117 216.641ZM124.664 217.328C124.331 217.141 123.982 217.047 123.617 217.047C123.159 217.047 122.779 217.198 122.477 217.5C122.174 217.792 121.909 218.156 121.68 218.594V223H119.695V215.109H121.68V216.594C121.951 216.125 122.268 215.734 122.633 215.422C123.008 215.109 123.43 214.953 123.898 214.953C124.18 214.953 124.435 215 124.664 215.094V217.328Z" fill="#1A4049"/>
<path d="M160.367 159.336L151.946 166.226C151.457 166.626 151.457 167.374 151.946 167.774L160.367 174.664C161.02 175.198 162 174.733 162 173.89V170C162 169.448 162.448 169 163 169H182C182.552 169 183 168.552 183 168V166C183 165.448 182.552 165 182 165H163C162.448 165 162 164.552 162 164V160.11C162 159.267 161.02 158.802 160.367 159.336Z" fill="#6C65E5"/>
<path d="M184.633 174.664L193.054 167.774C193.543 167.374 193.543 166.626 193.054 166.226L184.633 159.336C183.98 158.802 183 159.267 183 160.11L183 164C183 164.552 182.552 165 182 165L163 165C162.448 165 162 165.448 162 166L162 168C162 168.552 162.448 169 163 169L182 169C182.552 169 183 169.448 183 170L183 173.89C183 174.733 183.98 175.198 184.633 174.664Z" fill="#6C65E5"/>
<path d="M495.367 159.336L486.946 166.226C486.457 166.626 486.457 167.374 486.946 167.774L495.367 174.664C496.02 175.198 497 174.733 497 173.89V170C497 169.448 497.448 169 498 169H517C517.552 169 518 168.552 518 168V166C518 165.448 517.552 165 517 165H498C497.448 165 497 164.552 497 164V160.11C497 159.267 496.02 158.802 495.367 159.336Z" fill="#6C65E5"/>
<path d="M519.633 174.664L528.054 167.774C528.543 167.374 528.543 166.626 528.054 166.226L519.633 159.336C518.98 158.802 518 159.267 518 160.11L518 164C518 164.552 517.552 165 517 165L498 165C497.448 165 497 165.448 497 166L497 168C497 168.552 497.448 169 498 169L517 169C517.552 169 518 169.448 518 170L518 173.89C518 174.733 518.98 175.198 519.633 174.664Z" fill="#6C65E5"/>
<path d="M657.367 159.336L648.946 166.226C648.457 166.626 648.457 167.374 648.946 167.774L657.367 174.664C658.02 175.198 659 174.733 659 173.89V170C659 169.448 659.448 169 660 169H776C776.552 169 777 168.552 777 168V166C777 165.448 776.552 165 776 165H660C659.448 165 659 164.552 659 164V160.11C659 159.267 658.02 158.802 657.367 159.336Z" fill="#6C65E5"/>
<path d="M684.558 145.635C685.132 145.635 685.629 145.717 686.048 145.881C686.467 146.036 686.832 146.25 687.142 146.523V148.438C686.923 148.273 686.695 148.114 686.458 147.959C686.221 147.804 685.952 147.676 685.651 147.576C685.36 147.476 685.013 147.426 684.612 147.426C684.065 147.426 683.569 147.558 683.122 147.822C682.675 148.087 682.32 148.442 682.056 148.889C681.791 149.335 681.659 149.846 681.659 150.42C681.659 150.985 681.791 151.495 682.056 151.951C682.32 152.398 682.675 152.753 683.122 153.018C683.569 153.273 684.065 153.4 684.612 153.4C685.223 153.4 685.733 153.309 686.144 153.127C686.563 152.936 686.941 152.703 687.278 152.43V154.275C686.968 154.558 686.581 154.786 686.116 154.959C685.651 155.123 685.132 155.205 684.558 155.205C683.901 155.205 683.282 155.091 682.698 154.863C682.115 154.626 681.6 154.298 681.153 153.879C680.707 153.451 680.356 152.945 680.101 152.361C679.845 151.778 679.718 151.131 679.718 150.42C679.718 149.709 679.845 149.062 680.101 148.479C680.356 147.895 680.707 147.394 681.153 146.975C681.6 146.546 682.115 146.218 682.698 145.99C683.282 145.753 683.901 145.635 684.558 145.635ZM691.161 145.84V153.291H695.741V155H689.261V145.84H691.161ZM702.892 153.291V155H697.901V153.291H699.446V147.549H697.901V145.84H702.892V147.549H701.347V153.291H702.892ZM711.505 149.559V151.104H707.458V153.318H712.038V155H705.558V145.84H712.038V147.48H707.458V149.559H711.505ZM722.511 145.84V155.068H721.827L716.399 149.477V155H714.499V145.771H715.183L720.61 151.445V145.84H722.511ZM731.999 145.84V147.549H729.073V154.959H727.187V147.549H724.261V145.84H731.999ZM741.815 145.771L746.081 155H743.853L743.155 153.291H739.532L738.835 155H736.606L740.872 145.771H741.815ZM741.351 148.875L740.202 151.678H742.499L741.351 148.875ZM751.304 145.84C751.732 145.84 752.151 145.913 752.562 146.059C752.972 146.204 753.341 146.419 753.669 146.701C754.006 146.984 754.271 147.326 754.462 147.727C754.662 148.118 754.763 148.57 754.763 149.08C754.763 149.7 754.603 150.251 754.284 150.734C753.974 151.208 753.56 151.582 753.04 151.855C752.521 152.129 751.955 152.266 751.345 152.266C750.935 152.266 750.565 152.225 750.237 152.143C749.909 152.061 749.636 151.965 749.417 151.855V155H747.517V145.84H751.304ZM749.417 147.617V150.324C749.618 150.406 749.859 150.479 750.142 150.543C750.433 150.598 750.729 150.625 751.03 150.625C751.577 150.625 752.01 150.475 752.329 150.174C752.657 149.864 752.821 149.499 752.821 149.08C752.821 148.597 752.639 148.232 752.274 147.986C751.91 147.74 751.481 147.617 750.989 147.617H749.417ZM761.599 153.291V155H756.608V153.291H758.153V147.549H756.608V145.84H761.599V147.549H760.054V153.291H761.599Z" fill="#D76500"/>
<path d="M882.251 98.5154C857.477 99.0572 847.538 117.725 843.064 126.76C820.499 121.24 802.228 131.481 794.054 147.829C783.955 168.027 792.475 186.718 801.866 195.092C809.572 202.779 820.525 206.878 831.655 207.676C842.439 208.449 853.541 206.136 862.236 200.817C866.103 203.498 871.574 206.565 878.827 207.51C886.482 208.507 895.959 207.118 907.453 200.705C915.619 204.533 923.225 205.51 930.179 203.966C937.036 202.444 943.106 198.504 948.362 192.731C955.413 194.891 961.981 193.672 967.245 190.967C972.708 188.16 976.851 183.714 978.755 179.634C986.026 164.052 977.553 145.455 960.215 142.2C959.133 136.099 955.375 129.517 949.355 125.39C943.128 121.121 934.6 119.559 924.389 123.637C924.294 123.482 924.197 123.324 924.1 123.165C921.414 118.771 917.81 112.876 912.019 107.984C905.449 102.433 896.132 98.2119 882.251 98.5154Z" fill="url(#paint4_linear_14101_171732)" stroke="url(#paint5_linear_14101_171732)" stroke-width="3"/>
<path d="M826.384 190C839.639 190 850.384 179.255 850.384 166C850.384 152.745 839.639 142 826.384 142C813.129 142 802.384 152.745 802.384 166C802.384 179.255 813.129 190 826.384 190Z" fill="#1A4049"/>
<path d="M822.895 154.999H815.895V176.999H836.895V154.999H829.895V169.999H822.895V154.999Z" fill="white"/>
<path d="M829.895 169.999L836.895 169.999V176.999H829.895V169.999Z" fill="#817AFE"/>
<path d="M875.37 157.938V168.271C875.37 169.744 875.04 171.014 874.38 172.08C873.737 173.13 872.856 173.942 871.739 174.518C870.639 175.076 869.403 175.355 868.032 175.355C866.661 175.355 865.417 175.076 864.3 174.518C863.183 173.942 862.294 173.13 861.634 172.08C860.991 171.014 860.669 169.744 860.669 168.271V157.938H864.198V168.068C864.198 169.372 864.545 170.354 865.239 171.014C865.95 171.657 866.881 171.97 868.032 171.953C869.166 171.953 870.089 171.632 870.8 170.988C871.511 170.345 871.866 169.372 871.866 168.068V157.938H875.37ZM882.86 162.178V164.006C883.25 163.481 883.774 162.99 884.435 162.533C885.112 162.076 885.882 161.848 886.745 161.848C888.049 161.848 889.14 162.288 890.021 163.168C890.901 164.048 891.341 165.368 891.341 167.129V175H888.116L888.091 167.561C888.091 166.697 887.879 166.054 887.456 165.631C887.05 165.208 886.483 164.996 885.755 164.996C885.179 164.996 884.638 165.182 884.13 165.555C883.639 165.927 883.216 166.367 882.86 166.875V175H879.636V162.178H882.86ZM898.272 156.719V175H895.048V156.719H898.272ZM907.819 161.848C909.072 161.848 910.147 162.118 911.044 162.66C911.958 163.202 912.652 163.955 913.126 164.92C913.617 165.868 913.862 166.968 913.862 168.221V169.592H904.569C904.739 170.455 905.162 171.149 905.839 171.674C906.516 172.199 907.345 172.461 908.327 172.461C909.258 172.461 910.104 172.275 910.866 171.902C911.628 171.53 912.237 171.149 912.694 170.76L912.669 173.756C912.263 174.111 911.653 174.475 910.841 174.848C910.045 175.203 909.165 175.381 908.2 175.381C906.931 175.381 905.771 175.093 904.722 174.518C903.689 173.942 902.86 173.155 902.233 172.156C901.624 171.158 901.319 170.015 901.319 168.729C901.319 167.476 901.599 166.333 902.157 165.301C902.716 164.268 903.486 163.439 904.468 162.812C905.45 162.169 906.567 161.848 907.819 161.848ZM907.743 164.666C906.948 164.666 906.279 164.911 905.737 165.402C905.196 165.893 904.823 166.553 904.62 167.383H910.765C910.697 166.469 910.358 165.792 909.749 165.352C909.14 164.895 908.471 164.666 907.743 164.666ZM921.886 161.848C922.58 161.848 923.282 162.008 923.993 162.33C924.704 162.652 925.297 163.083 925.771 163.625V162.178H928.995V175H925.771V172.842C925.398 173.536 924.856 174.137 924.146 174.645C923.435 175.135 922.605 175.381 921.657 175.381C920.625 175.381 919.668 175.118 918.788 174.594C917.925 174.069 917.231 173.307 916.706 172.309C916.181 171.31 915.919 170.1 915.919 168.678C915.919 167.256 916.181 166.037 916.706 165.021C917.248 164.006 917.967 163.227 918.864 162.686C919.778 162.127 920.785 161.848 921.886 161.848ZM922.546 164.996C921.869 164.996 921.285 165.174 920.794 165.529C920.32 165.868 919.948 166.316 919.677 166.875C919.406 167.434 919.271 168.035 919.271 168.678C919.271 169.643 919.558 170.464 920.134 171.141C920.726 171.818 921.505 172.156 922.47 172.156C923.045 172.156 923.578 172.004 924.069 171.699C924.577 171.395 924.983 170.971 925.288 170.43C925.61 169.871 925.771 169.202 925.771 168.424V166.596C925.313 166.105 924.814 165.715 924.272 165.428C923.748 165.14 923.172 164.996 922.546 164.996ZM937.095 161.848C937.89 161.848 938.627 161.966 939.304 162.203C939.981 162.44 940.506 162.711 940.878 163.016V165.859C940.472 165.589 939.972 165.326 939.38 165.072C938.804 164.818 938.203 164.691 937.577 164.691C936.968 164.691 936.485 164.827 936.13 165.098C935.774 165.368 935.597 165.69 935.597 166.062C935.597 166.333 935.698 166.587 935.901 166.824C936.104 167.044 936.494 167.239 937.069 167.408L938.517 167.891C940.463 168.466 941.437 169.592 941.437 171.268C941.437 172.063 941.208 172.774 940.751 173.4C940.311 174.01 939.71 174.492 938.948 174.848C938.203 175.203 937.374 175.381 936.46 175.381C935.597 175.381 934.759 175.245 933.946 174.975C933.134 174.704 932.516 174.408 932.093 174.086V171.268C932.414 171.488 932.804 171.699 933.261 171.902C933.718 172.105 934.192 172.275 934.683 172.41C935.174 172.529 935.622 172.588 936.028 172.588C936.672 172.588 937.162 172.478 937.501 172.258C937.856 172.021 938.034 171.691 938.034 171.268C938.034 170.946 937.89 170.692 937.603 170.506C937.315 170.32 936.892 170.133 936.333 169.947L934.759 169.389C933.777 169.067 933.1 168.61 932.728 168.018C932.355 167.425 932.169 166.723 932.169 165.91C932.169 165.098 932.372 164.395 932.778 163.803C933.201 163.193 933.785 162.719 934.53 162.381C935.275 162.025 936.13 161.848 937.095 161.848ZM951.288 161.848C952.591 161.848 953.683 162.288 954.563 163.168C955.444 164.048 955.884 165.368 955.884 167.129V175H952.659L952.634 167.561C952.634 166.697 952.422 166.054 951.999 165.631C951.593 165.208 951.026 164.996 950.298 164.996C949.722 164.996 949.181 165.182 948.673 165.555C948.182 165.927 947.759 166.367 947.403 166.875V175H944.179V156.719H947.403V164.006C947.793 163.481 948.317 162.99 948.978 162.533C949.655 162.076 950.425 161.848 951.288 161.848Z" fill="#1A4049"/>
<rect x="813" y="220" width="145" height="64" rx="8" fill="white" fill-opacity="0.6"/>
<path d="M830.51 237.635C831.175 237.635 831.717 237.726 832.137 237.908C832.565 238.09 832.939 238.327 833.258 238.619V239.973C833.057 239.827 832.829 239.667 832.574 239.494C832.328 239.321 832.036 239.171 831.699 239.043C831.371 238.906 830.975 238.838 830.51 238.838C829.826 238.838 829.215 238.993 828.678 239.303C828.14 239.613 827.716 240.041 827.406 240.588C827.096 241.126 826.941 241.736 826.941 242.42C826.941 243.104 827.096 243.714 827.406 244.252C827.716 244.79 828.14 245.218 828.678 245.537C829.215 245.847 829.826 246.002 830.51 246.002C831.212 246.002 831.809 245.888 832.301 245.66C832.802 245.423 833.212 245.182 833.531 244.936V246.166C833.212 246.449 832.793 246.695 832.273 246.904C831.763 247.105 831.175 247.205 830.51 247.205C829.817 247.205 829.179 247.082 828.596 246.836C828.012 246.581 827.502 246.234 827.064 245.797C826.627 245.359 826.285 244.854 826.039 244.279C825.802 243.696 825.684 243.076 825.684 242.42C825.684 241.764 825.802 241.148 826.039 240.574C826.285 239.991 826.627 239.48 827.064 239.043C827.502 238.605 828.012 238.264 828.596 238.018C829.179 237.762 829.817 237.635 830.51 237.635ZM838.727 240.027C839.191 240.027 839.615 240.132 839.998 240.342C840.381 240.542 840.686 240.852 840.914 241.271C841.142 241.682 841.256 242.201 841.256 242.83V247H840.135L840.121 242.939C840.121 242.347 839.989 241.896 839.725 241.586C839.469 241.276 839.073 241.121 838.535 241.121C838.171 241.121 837.806 241.258 837.441 241.531C837.086 241.796 836.771 242.105 836.498 242.461V247H835.377V237.156H836.498V241.244C836.644 241.062 836.831 240.88 837.059 240.697C837.286 240.506 837.542 240.346 837.824 240.219C838.116 240.091 838.417 240.027 838.727 240.027ZM846.191 240.027C846.583 240.027 846.98 240.123 847.381 240.314C847.791 240.497 848.142 240.752 848.434 241.08V240.164H849.555V247H848.434V245.838C848.197 246.202 847.873 246.521 847.463 246.795C847.062 247.068 846.602 247.205 846.082 247.205C845.499 247.205 844.965 247.059 844.482 246.768C843.999 246.467 843.612 246.052 843.32 245.523C843.038 244.995 842.896 244.384 842.896 243.691C842.896 242.935 843.038 242.283 843.32 241.736C843.612 241.189 844.008 240.77 844.51 240.479C845.011 240.178 845.572 240.027 846.191 240.027ZM846.396 241.121C845.904 241.121 845.485 241.244 845.139 241.49C844.792 241.736 844.523 242.055 844.332 242.447C844.15 242.83 844.059 243.245 844.059 243.691C844.059 244.129 844.15 244.535 844.332 244.908C844.514 245.273 844.77 245.564 845.098 245.783C845.435 246.002 845.822 246.111 846.26 246.111C846.679 246.111 847.053 246.002 847.381 245.783C847.709 245.564 847.969 245.264 848.16 244.881C848.352 244.489 848.443 244.051 848.434 243.568L848.42 242.256C848.137 241.9 847.832 241.622 847.504 241.422C847.185 241.221 846.816 241.121 846.396 241.121ZM853 240.164V241.244C853.146 241.062 853.333 240.88 853.561 240.697C853.788 240.506 854.044 240.346 854.326 240.219C854.618 240.091 854.919 240.027 855.229 240.027C855.693 240.027 856.117 240.132 856.5 240.342C856.883 240.542 857.188 240.852 857.416 241.271C857.644 241.682 857.758 242.201 857.758 242.83V247H856.637L856.623 242.939C856.623 242.347 856.491 241.896 856.227 241.586C855.971 241.276 855.575 241.121 855.037 241.121C854.673 241.121 854.308 241.258 853.943 241.531C853.588 241.796 853.273 242.105 853 242.461V247H851.879V240.164H853ZM862.693 240.027C863.085 240.027 863.482 240.123 863.883 240.314C864.293 240.497 864.644 240.752 864.936 241.08V240.164H866.057V246.863C866.057 247.674 865.893 248.349 865.564 248.887C865.236 249.424 864.799 249.826 864.252 250.09C863.705 250.354 863.108 250.486 862.461 250.486C862.042 250.486 861.682 250.436 861.381 250.336C861.089 250.245 860.839 250.126 860.629 249.98C860.419 249.844 860.228 249.712 860.055 249.584V248.381C860.191 248.481 860.369 248.609 860.588 248.764C860.816 248.928 861.085 249.074 861.395 249.201C861.714 249.329 862.069 249.393 862.461 249.393C862.908 249.393 863.318 249.311 863.691 249.146C864.065 248.982 864.366 248.741 864.594 248.422C864.822 248.103 864.936 247.72 864.936 247.273V245.838C864.699 246.202 864.375 246.521 863.965 246.795C863.564 247.068 863.104 247.205 862.584 247.205C862.001 247.205 861.467 247.059 860.984 246.768C860.501 246.467 860.114 246.052 859.822 245.523C859.54 244.995 859.398 244.384 859.398 243.691C859.398 242.935 859.54 242.283 859.822 241.736C860.114 241.189 860.51 240.77 861.012 240.479C861.513 240.178 862.074 240.027 862.693 240.027ZM862.898 241.135C862.406 241.135 861.987 241.258 861.641 241.504C861.294 241.741 861.025 242.055 860.834 242.447C860.652 242.83 860.561 243.245 860.561 243.691C860.561 244.129 860.652 244.53 860.834 244.895C861.016 245.259 861.271 245.551 861.6 245.77C861.937 245.988 862.324 246.098 862.762 246.098C863.181 246.098 863.555 245.988 863.883 245.77C864.211 245.551 864.471 245.25 864.662 244.867C864.854 244.484 864.945 244.051 864.936 243.568L864.922 242.256C864.639 241.9 864.334 241.627 864.006 241.436C863.687 241.235 863.318 241.135 862.898 241.135ZM871.197 240.027C871.899 240.027 872.482 240.173 872.947 240.465C873.412 240.757 873.758 241.153 873.986 241.654C874.223 242.156 874.342 242.721 874.342 243.35V244.02H869.092C869.146 244.402 869.279 244.753 869.488 245.072C869.698 245.391 869.971 245.646 870.309 245.838C870.646 246.02 871.033 246.111 871.471 246.111C871.963 246.111 872.423 245.988 872.852 245.742C873.28 245.487 873.64 245.209 873.932 244.908L873.918 246.125C873.79 246.28 873.599 246.444 873.344 246.617C873.098 246.781 872.811 246.918 872.482 247.027C872.163 247.146 871.826 247.205 871.471 247.205C870.778 247.205 870.163 247.041 869.625 246.713C869.087 246.385 868.663 245.952 868.354 245.414C868.053 244.867 867.902 244.27 867.902 243.623C867.902 242.976 868.044 242.379 868.326 241.832C868.609 241.285 868.996 240.848 869.488 240.52C869.99 240.191 870.559 240.027 871.197 240.027ZM871.197 241.121C870.632 241.121 870.167 241.312 869.803 241.695C869.438 242.069 869.21 242.525 869.119 243.062H873.234C873.189 242.616 873.061 242.251 872.852 241.969C872.651 241.686 872.405 241.477 872.113 241.34C871.822 241.194 871.516 241.121 871.197 241.121ZM878.225 240.027C878.626 240.027 878.999 240.087 879.346 240.205C879.692 240.314 879.943 240.428 880.098 240.547V241.75C879.906 241.604 879.646 241.463 879.318 241.326C878.99 241.189 878.653 241.121 878.307 241.121C877.878 241.121 877.555 241.221 877.336 241.422C877.126 241.622 877.021 241.832 877.021 242.051C877.021 242.224 877.081 242.402 877.199 242.584C877.327 242.757 877.546 242.898 877.855 243.008L879.004 243.418C879.451 243.573 879.783 243.796 880.002 244.088C880.221 244.38 880.33 244.721 880.33 245.113C880.33 245.496 880.221 245.847 880.002 246.166C879.792 246.485 879.496 246.74 879.113 246.932C878.74 247.114 878.307 247.205 877.814 247.205C877.55 247.205 877.272 247.169 876.98 247.096C876.698 247.032 876.443 246.954 876.215 246.863C875.987 246.763 875.818 246.676 875.709 246.604V245.4C875.837 245.492 876.014 245.596 876.242 245.715C876.479 245.824 876.73 245.92 876.994 246.002C877.258 246.075 877.505 246.111 877.732 246.111C878.161 246.111 878.498 246.016 878.744 245.824C878.999 245.633 879.127 245.396 879.127 245.113C879.127 244.895 879.04 244.721 878.867 244.594C878.703 244.466 878.462 244.343 878.143 244.225L877.131 243.855C876.602 243.655 876.251 243.404 876.078 243.104C875.905 242.794 875.818 242.443 875.818 242.051C875.818 241.467 876.037 240.984 876.475 240.602C876.912 240.219 877.495 240.027 878.225 240.027ZM888.178 240.027C888.579 240.027 888.952 240.087 889.299 240.205C889.645 240.314 889.896 240.428 890.051 240.547V241.75C889.859 241.604 889.6 241.463 889.271 241.326C888.943 241.189 888.606 241.121 888.26 241.121C887.831 241.121 887.508 241.221 887.289 241.422C887.079 241.622 886.975 241.832 886.975 242.051C886.975 242.224 887.034 242.402 887.152 242.584C887.28 242.757 887.499 242.898 887.809 243.008L888.957 243.418C889.404 243.573 889.736 243.796 889.955 244.088C890.174 244.38 890.283 244.721 890.283 245.113C890.283 245.496 890.174 245.847 889.955 246.166C889.745 246.485 889.449 246.74 889.066 246.932C888.693 247.114 888.26 247.205 887.768 247.205C887.503 247.205 887.225 247.169 886.934 247.096C886.651 247.032 886.396 246.954 886.168 246.863C885.94 246.763 885.771 246.676 885.662 246.604V245.4C885.79 245.492 885.967 245.596 886.195 245.715C886.432 245.824 886.683 245.92 886.947 246.002C887.212 246.075 887.458 246.111 887.686 246.111C888.114 246.111 888.451 246.016 888.697 245.824C888.952 245.633 889.08 245.396 889.08 245.113C889.08 244.895 888.993 244.721 888.82 244.594C888.656 244.466 888.415 244.343 888.096 244.225L887.084 243.855C886.555 243.655 886.204 243.404 886.031 243.104C885.858 242.794 885.771 242.443 885.771 242.051C885.771 241.467 885.99 240.984 886.428 240.602C886.865 240.219 887.449 240.027 888.178 240.027ZM892.375 240.164L894.768 245.195L897.092 240.164H898.432L893.4 250.281H892.102L894.057 246.59L891.035 240.164H892.375ZM900.92 240.164V241.244C901.066 241.062 901.253 240.88 901.48 240.697C901.708 240.506 901.964 240.346 902.246 240.219C902.538 240.091 902.839 240.027 903.148 240.027C903.613 240.027 904.037 240.132 904.42 240.342C904.803 240.542 905.108 240.852 905.336 241.271C905.564 241.682 905.678 242.201 905.678 242.83V247H904.557L904.543 242.939C904.543 242.347 904.411 241.896 904.146 241.586C903.891 241.276 903.495 241.121 902.957 241.121C902.592 241.121 902.228 241.258 901.863 241.531C901.508 241.796 901.193 242.105 900.92 242.461V247H899.799V240.164H900.92ZM910.887 240.027C911.388 240.027 911.821 240.109 912.186 240.273C912.55 240.428 912.801 240.57 912.938 240.697V241.832C912.682 241.641 912.391 241.477 912.062 241.34C911.734 241.194 911.342 241.121 910.887 241.121C910.404 241.121 909.98 241.24 909.615 241.477C909.251 241.704 908.968 242.01 908.768 242.393C908.576 242.766 908.48 243.176 908.48 243.623C908.48 244.061 908.576 244.471 908.768 244.854C908.968 245.227 909.251 245.533 909.615 245.77C909.98 245.997 910.404 246.111 910.887 246.111C911.342 246.111 911.734 246.043 912.062 245.906C912.391 245.76 912.682 245.592 912.938 245.4V246.535C912.801 246.672 912.55 246.818 912.186 246.973C911.821 247.128 911.388 247.205 910.887 247.205C910.194 247.205 909.579 247.041 909.041 246.713C908.503 246.385 908.079 245.952 907.77 245.414C907.469 244.867 907.318 244.27 907.318 243.623C907.318 242.976 907.469 242.379 907.77 241.832C908.079 241.285 908.503 240.848 909.041 240.52C909.579 240.191 910.194 240.027 910.887 240.027ZM917.6 240.027C918.301 240.027 918.885 240.173 919.35 240.465C919.814 240.757 920.161 241.153 920.389 241.654C920.626 242.156 920.744 242.721 920.744 243.35V244.02H915.494C915.549 244.402 915.681 244.753 915.891 245.072C916.1 245.391 916.374 245.646 916.711 245.838C917.048 246.02 917.436 246.111 917.873 246.111C918.365 246.111 918.826 245.988 919.254 245.742C919.682 245.487 920.042 245.209 920.334 244.908L920.32 246.125C920.193 246.28 920.001 246.444 919.746 246.617C919.5 246.781 919.213 246.918 918.885 247.027C918.566 247.146 918.229 247.205 917.873 247.205C917.18 247.205 916.565 247.041 916.027 246.713C915.49 246.385 915.066 245.952 914.756 245.414C914.455 244.867 914.305 244.27 914.305 243.623C914.305 242.976 914.446 242.379 914.729 241.832C915.011 241.285 915.398 240.848 915.891 240.52C916.392 240.191 916.962 240.027 917.6 240.027ZM917.6 241.121C917.035 241.121 916.57 241.312 916.205 241.695C915.84 242.069 915.613 242.525 915.521 243.062H919.637C919.591 242.616 919.464 242.251 919.254 241.969C919.053 241.686 918.807 241.477 918.516 241.34C918.224 241.194 917.919 241.121 917.6 241.121ZM928.77 237.156V247H927.648V245.838C927.411 246.202 927.088 246.521 926.678 246.795C926.277 247.068 925.816 247.205 925.297 247.205C924.714 247.205 924.18 247.059 923.697 246.768C923.214 246.467 922.827 246.052 922.535 245.523C922.253 244.995 922.111 244.384 922.111 243.691C922.111 242.935 922.253 242.283 922.535 241.736C922.827 241.189 923.223 240.77 923.725 240.479C924.226 240.178 924.786 240.027 925.406 240.027C925.798 240.027 926.195 240.123 926.596 240.314C927.006 240.497 927.357 240.752 927.648 241.08V237.156H928.77ZM925.611 241.148C925.119 241.148 924.7 241.271 924.354 241.518C924.007 241.755 923.738 242.064 923.547 242.447C923.365 242.83 923.273 243.245 923.273 243.691C923.273 244.129 923.365 244.535 923.547 244.908C923.729 245.273 923.984 245.564 924.312 245.783C924.65 246.002 925.037 246.111 925.475 246.111C925.894 246.111 926.268 246.002 926.596 245.783C926.924 245.564 927.184 245.264 927.375 244.881C927.566 244.489 927.658 244.051 927.648 243.568L927.635 242.256C927.352 241.9 927.047 241.627 926.719 241.436C926.4 241.244 926.031 241.148 925.611 241.148ZM827.256 256.883C827.52 256.883 827.739 256.979 827.912 257.17C828.094 257.352 828.186 257.566 828.186 257.812C828.186 258.049 828.094 258.264 827.912 258.455C827.739 258.646 827.52 258.742 827.256 258.742C826.992 258.742 826.768 258.646 826.586 258.455C826.413 258.264 826.326 258.049 826.326 257.812C826.326 257.566 826.413 257.352 826.586 257.17C826.768 256.979 826.992 256.883 827.256 256.883ZM827.953 260.164V267H826.832V261.217H825.752V260.164H827.953ZM831.494 260.164V261.244C831.64 261.062 831.827 260.88 832.055 260.697C832.283 260.506 832.538 260.346 832.82 260.219C833.112 260.091 833.413 260.027 833.723 260.027C834.188 260.027 834.611 260.132 834.994 260.342C835.377 260.542 835.682 260.852 835.91 261.271C836.138 261.682 836.252 262.201 836.252 262.83V267H835.131L835.117 262.939C835.117 262.347 834.985 261.896 834.721 261.586C834.465 261.276 834.069 261.121 833.531 261.121C833.167 261.121 832.802 261.258 832.438 261.531C832.082 261.796 831.768 262.105 831.494 262.461V267H830.373V260.164H831.494ZM844.359 258.195V260.164H846.355V261.217H844.359V265.223C844.359 265.505 844.432 265.729 844.578 265.893C844.724 266.057 844.947 266.139 845.248 266.139C845.521 266.139 845.749 266.107 845.932 266.043C846.114 265.97 846.273 265.893 846.41 265.811V266.727C846.228 266.872 846.032 266.986 845.822 267.068C845.622 267.16 845.348 267.205 845.002 267.205C844.419 267.205 843.977 267.032 843.676 266.686C843.384 266.33 843.238 265.861 843.238 265.277V261.217H841.926V260.889C842.372 260.688 842.746 260.36 843.047 259.904C843.348 259.439 843.612 258.87 843.84 258.195H844.359ZM851.742 260.027C852.207 260.027 852.631 260.132 853.014 260.342C853.396 260.542 853.702 260.852 853.93 261.271C854.158 261.682 854.271 262.201 854.271 262.83V267H853.15L853.137 262.939C853.137 262.347 853.005 261.896 852.74 261.586C852.485 261.276 852.089 261.121 851.551 261.121C851.186 261.121 850.822 261.258 850.457 261.531C850.102 261.796 849.787 262.105 849.514 262.461V267H848.393V257.156H849.514V261.244C849.66 261.062 849.846 260.88 850.074 260.697C850.302 260.506 850.557 260.346 850.84 260.219C851.132 260.091 851.432 260.027 851.742 260.027ZM859.207 260.027C859.909 260.027 860.492 260.173 860.957 260.465C861.422 260.757 861.768 261.153 861.996 261.654C862.233 262.156 862.352 262.721 862.352 263.35V264.02H857.102C857.156 264.402 857.288 264.753 857.498 265.072C857.708 265.391 857.981 265.646 858.318 265.838C858.656 266.02 859.043 266.111 859.48 266.111C859.973 266.111 860.433 265.988 860.861 265.742C861.29 265.487 861.65 265.209 861.941 264.908L861.928 266.125C861.8 266.28 861.609 266.444 861.354 266.617C861.107 266.781 860.82 266.918 860.492 267.027C860.173 267.146 859.836 267.205 859.48 267.205C858.788 267.205 858.173 267.041 857.635 266.713C857.097 266.385 856.673 265.952 856.363 265.414C856.062 264.867 855.912 264.27 855.912 263.623C855.912 262.976 856.053 262.379 856.336 261.832C856.618 261.285 857.006 260.848 857.498 260.52C857.999 260.191 858.569 260.027 859.207 260.027ZM859.207 261.121C858.642 261.121 858.177 261.312 857.812 261.695C857.448 262.069 857.22 262.525 857.129 263.062H861.244C861.199 262.616 861.071 262.251 860.861 261.969C860.661 261.686 860.415 261.477 860.123 261.34C859.831 261.194 859.526 261.121 859.207 261.121ZM871.662 260.027C872.291 260.027 872.852 260.178 873.344 260.479C873.845 260.77 874.237 261.189 874.52 261.736C874.811 262.283 874.957 262.935 874.957 263.691C874.957 264.384 874.811 264.995 874.52 265.523C874.237 266.052 873.854 266.467 873.371 266.768C872.897 267.059 872.364 267.205 871.771 267.205C871.252 267.205 870.787 267.068 870.377 266.795C869.976 266.521 869.657 266.202 869.42 265.838V267H868.299V257.156H869.42V261.08C869.712 260.752 870.058 260.497 870.459 260.314C870.869 260.123 871.27 260.027 871.662 260.027ZM871.457 261.135C871.038 261.135 870.669 261.235 870.35 261.436C870.031 261.627 869.725 261.9 869.434 262.256L869.42 263.568C869.42 264.051 869.511 264.484 869.693 264.867C869.885 265.25 870.145 265.551 870.473 265.77C870.81 265.988 871.184 266.098 871.594 266.098C872.04 266.098 872.428 265.988 872.756 265.77C873.084 265.551 873.339 265.259 873.521 264.895C873.704 264.53 873.795 264.129 873.795 263.691C873.795 263.245 873.699 262.83 873.508 262.447C873.326 262.055 873.061 261.741 872.715 261.504C872.368 261.258 871.949 261.135 871.457 261.135ZM879.619 260.027C880.011 260.027 880.408 260.123 880.809 260.314C881.219 260.497 881.57 260.752 881.861 261.08V260.164H882.982V267H881.861V265.838C881.624 266.202 881.301 266.521 880.891 266.795C880.49 267.068 880.029 267.205 879.51 267.205C878.926 267.205 878.393 267.059 877.91 266.768C877.427 266.467 877.04 266.052 876.748 265.523C876.465 264.995 876.324 264.384 876.324 263.691C876.324 262.935 876.465 262.283 876.748 261.736C877.04 261.189 877.436 260.77 877.938 260.479C878.439 260.178 878.999 260.027 879.619 260.027ZM879.824 261.121C879.332 261.121 878.913 261.244 878.566 261.49C878.22 261.736 877.951 262.055 877.76 262.447C877.577 262.83 877.486 263.245 877.486 263.691C877.486 264.129 877.577 264.535 877.76 264.908C877.942 265.273 878.197 265.564 878.525 265.783C878.863 266.002 879.25 266.111 879.688 266.111C880.107 266.111 880.48 266.002 880.809 265.783C881.137 265.564 881.396 265.264 881.588 264.881C881.779 264.489 881.87 264.051 881.861 263.568L881.848 262.256C881.565 261.9 881.26 261.622 880.932 261.422C880.613 261.221 880.243 261.121 879.824 261.121ZM888.396 260.027C888.898 260.027 889.331 260.109 889.695 260.273C890.06 260.428 890.311 260.57 890.447 260.697V261.832C890.192 261.641 889.9 261.477 889.572 261.34C889.244 261.194 888.852 261.121 888.396 261.121C887.913 261.121 887.49 261.24 887.125 261.477C886.76 261.704 886.478 262.01 886.277 262.393C886.086 262.766 885.99 263.176 885.99 263.623C885.99 264.061 886.086 264.471 886.277 264.854C886.478 265.227 886.76 265.533 887.125 265.77C887.49 265.997 887.913 266.111 888.396 266.111C888.852 266.111 889.244 266.043 889.572 265.906C889.9 265.76 890.192 265.592 890.447 265.4V266.535C890.311 266.672 890.06 266.818 889.695 266.973C889.331 267.128 888.898 267.205 888.396 267.205C887.704 267.205 887.089 267.041 886.551 266.713C886.013 266.385 885.589 265.952 885.279 265.414C884.979 264.867 884.828 264.27 884.828 263.623C884.828 262.976 884.979 262.379 885.279 261.832C885.589 261.285 886.013 260.848 886.551 260.52C887.089 260.191 887.704 260.027 888.396 260.027ZM898.336 260.164L895.164 263.145L898.514 267H897.092L894.385 263.883L893.414 264.785V267H892.293V257.156H893.414V263.5L896.818 260.164H898.336ZM902.561 260.027C902.952 260.027 903.349 260.123 903.75 260.314C904.16 260.497 904.511 260.752 904.803 261.08V260.164H905.924V266.863C905.924 267.674 905.76 268.349 905.432 268.887C905.104 269.424 904.666 269.826 904.119 270.09C903.572 270.354 902.975 270.486 902.328 270.486C901.909 270.486 901.549 270.436 901.248 270.336C900.956 270.245 900.706 270.126 900.496 269.98C900.286 269.844 900.095 269.712 899.922 269.584V268.381C900.059 268.481 900.236 268.609 900.455 268.764C900.683 268.928 900.952 269.074 901.262 269.201C901.581 269.329 901.936 269.393 902.328 269.393C902.775 269.393 903.185 269.311 903.559 269.146C903.932 268.982 904.233 268.741 904.461 268.422C904.689 268.103 904.803 267.72 904.803 267.273V265.838C904.566 266.202 904.242 266.521 903.832 266.795C903.431 267.068 902.971 267.205 902.451 267.205C901.868 267.205 901.335 267.059 900.852 266.768C900.368 266.467 899.981 266.052 899.689 265.523C899.407 264.995 899.266 264.384 899.266 263.691C899.266 262.935 899.407 262.283 899.689 261.736C899.981 261.189 900.378 260.77 900.879 260.479C901.38 260.178 901.941 260.027 902.561 260.027ZM902.766 261.135C902.273 261.135 901.854 261.258 901.508 261.504C901.161 261.741 900.893 262.055 900.701 262.447C900.519 262.83 900.428 263.245 900.428 263.691C900.428 264.129 900.519 264.53 900.701 264.895C900.883 265.259 901.139 265.551 901.467 265.77C901.804 265.988 902.191 266.098 902.629 266.098C903.048 266.098 903.422 265.988 903.75 265.77C904.078 265.551 904.338 265.25 904.529 264.867C904.721 264.484 904.812 264.051 904.803 263.568L904.789 262.256C904.507 261.9 904.201 261.627 903.873 261.436C903.554 261.235 903.185 261.135 902.766 261.135ZM909.369 260.164V261.531C909.633 261.076 909.952 260.711 910.326 260.438C910.7 260.164 911.083 260.027 911.475 260.027C911.739 260.027 911.976 260.073 912.186 260.164V261.463C911.894 261.29 911.602 261.203 911.311 261.203C910.846 261.203 910.467 261.367 910.176 261.695C909.893 262.023 909.624 262.415 909.369 262.871V267H908.248V260.164H909.369ZM916.711 260.027C917.404 260.027 918.019 260.191 918.557 260.52C919.094 260.848 919.514 261.285 919.814 261.832C920.124 262.379 920.279 262.976 920.279 263.623C920.279 264.27 920.124 264.867 919.814 265.414C919.514 265.952 919.094 266.385 918.557 266.713C918.019 267.041 917.404 267.205 916.711 267.205C916.018 267.205 915.403 267.041 914.865 266.713C914.327 266.385 913.904 265.952 913.594 265.414C913.293 264.867 913.143 264.27 913.143 263.623C913.143 262.976 913.293 262.379 913.594 261.832C913.904 261.285 914.327 260.848 914.865 260.52C915.403 260.191 916.018 260.027 916.711 260.027ZM916.711 261.121C916.228 261.121 915.804 261.24 915.439 261.477C915.075 261.704 914.792 262.01 914.592 262.393C914.4 262.766 914.305 263.176 914.305 263.623C914.305 264.061 914.4 264.471 914.592 264.854C914.792 265.227 915.075 265.533 915.439 265.77C915.804 265.997 916.228 266.111 916.711 266.111C917.203 266.111 917.627 265.997 917.982 265.77C918.347 265.533 918.625 265.227 918.816 264.854C919.017 264.471 919.117 264.061 919.117 263.623C919.117 263.176 919.017 262.766 918.816 262.393C918.625 262.01 918.347 261.704 917.982 261.477C917.627 261.24 917.203 261.121 916.711 261.121ZM927.717 260.164V264.211C927.717 264.812 927.589 265.332 927.334 265.77C927.079 266.207 926.732 266.544 926.295 266.781C925.857 267.018 925.365 267.137 924.818 267.137C924.271 267.137 923.779 267.018 923.342 266.781C922.904 266.544 922.558 266.207 922.303 265.77C922.048 265.332 921.92 264.812 921.92 264.211V260.164H923.082V264.211C923.082 264.803 923.255 265.259 923.602 265.578C923.957 265.888 924.363 266.043 924.818 266.043C925.274 266.043 925.675 265.888 926.021 265.578C926.377 265.259 926.555 264.803 926.555 264.211V260.164H927.717ZM930.957 260.164V261.244C931.103 261.062 931.29 260.88 931.518 260.697C931.745 260.506 932.001 260.346 932.283 260.219C932.575 260.091 932.876 260.027 933.186 260.027C933.65 260.027 934.074 260.132 934.457 260.342C934.84 260.542 935.145 260.852 935.373 261.271C935.601 261.682 935.715 262.201 935.715 262.83V267H934.594L934.58 262.939C934.58 262.347 934.448 261.896 934.184 261.586C933.928 261.276 933.532 261.121 932.994 261.121C932.63 261.121 932.265 261.258 931.9 261.531C931.545 261.796 931.23 262.105 930.957 262.461V267H929.836V260.164H930.957ZM944.014 257.156V267H942.893V265.838C942.656 266.202 942.332 266.521 941.922 266.795C941.521 267.068 941.061 267.205 940.541 267.205C939.958 267.205 939.424 267.059 938.941 266.768C938.458 266.467 938.071 266.052 937.779 265.523C937.497 264.995 937.355 264.384 937.355 263.691C937.355 262.935 937.497 262.283 937.779 261.736C938.071 261.189 938.467 260.77 938.969 260.479C939.47 260.178 940.031 260.027 940.65 260.027C941.042 260.027 941.439 260.123 941.84 260.314C942.25 260.497 942.601 260.752 942.893 261.08V257.156H944.014ZM940.855 261.148C940.363 261.148 939.944 261.271 939.598 261.518C939.251 261.755 938.982 262.064 938.791 262.447C938.609 262.83 938.518 263.245 938.518 263.691C938.518 264.129 938.609 264.535 938.791 264.908C938.973 265.273 939.229 265.564 939.557 265.783C939.894 266.002 940.281 266.111 940.719 266.111C941.138 266.111 941.512 266.002 941.84 265.783C942.168 265.564 942.428 265.264 942.619 264.881C942.811 264.489 942.902 264.051 942.893 263.568L942.879 262.256C942.596 261.9 942.291 261.627 941.963 261.436C941.644 261.244 941.275 261.148 940.855 261.148Z" fill="#1A4049"/>
</g>
<defs>
<filter id="filter0_d_14101_171732" x="144" y="-4" width="550" height="333" filterUnits="userSpaceOnUse" color-interpolation-filters="sRGB">
<feFlood flood-opacity="0" result="BackgroundImageFix"/>
<feColorMatrix in="SourceAlpha" type="matrix" values="0 0 0 0 0 0 0 0 0 0 0 0 0 0 0 0 0 0 127 0" result="hardAlpha"/>
<feOffset/>
<feGaussianBlur stdDeviation="14"/>
<feComposite in2="hardAlpha" operator="out"/>
<feColorMatrix type="matrix" values="0 0 0 0 0.470588 0 0 0 0 0.701961 0 0 0 0 0.0705882 0 0 0 0.1 0"/>
<feBlend mode="normal" in2="BackgroundImageFix" result="effect1_dropShadow_14101_171732"/>
<feBlend mode="normal" in="SourceGraphic" in2="effect1_dropShadow_14101_171732" result="shape"/>
</filter>
<linearGradient id="paint0_linear_14101_171732" x1="634.919" y1="156.813" x2="625.133" y2="80.0571" gradientUnits="userSpaceOnUse">
<stop stop-color="#A3A1C9"/>
<stop offset="0.38921" stop-color="#D7D6F1"/>
</linearGradient>
<linearGradient id="paint1_linear_14101_171732" x1="634.919" y1="196.813" x2="625.133" y2="120.057" gradientUnits="userSpaceOnUse">
<stop stop-color="#A3A1C9"/>
<stop offset="0.38921" stop-color="#D7D6F1"/>
</linearGradient>
<linearGradient id="paint2_linear_14101_171732" x1="634.919" y1="236.813" x2="625.133" y2="160.057" gradientUnits="userSpaceOnUse">
<stop stop-color="#A3A1C9"/>
<stop offset="0.38921" stop-color="#D7D6F1"/>
</linearGradient>
<linearGradient id="paint3_linear_14101_171732" x1="136.702" y1="177.282" x2="83.7448" y2="86.3694" gradientUnits="userSpaceOnUse">
<stop offset="0.0724271" stop-color="#B1B0CA"/>
<stop offset="0.5" stop-color="#DFDEF5"/>
<stop offset="1" stop-color="#F7F7FF"/>
</linearGradient>
<linearGradient id="paint4_linear_14101_171732" x1="887.039" y1="95.175" x2="887.039" y2="209.028" gradientUnits="userSpaceOnUse">
<stop stop-color="white"/>
<stop offset="1" stop-color="#E5E3FF"/>
</linearGradient>
<linearGradient id="paint5_linear_14101_171732" x1="887.039" y1="95.175" x2="887.039" y2="209.028" gradientUnits="userSpaceOnUse">
<stop stop-color="#1A4049"/>
<stop offset="1" stop-color="#6C65E5"/>
</linearGradient>
<clipPath id="clip0_14101_171732">
<rect width="1024" height="325" fill="white"/>
</clipPath>
<clipPath id="clip1_14101_171732">
<rect width="16.28" height="20" fill="white" transform="translate(241.86 131)"/>
</clipPath>
<clipPath id="clip2_14101_171732">
<rect width="17.856" height="20" fill="white" transform="translate(241.072 183)"/>
</clipPath>
<clipPath id="clip3_14101_171732">
<rect width="22.4791" height="20" fill="white" transform="translate(444.76 131)"/>
</clipPath>
<clipPath id="clip4_14101_171732">
<rect width="20" height="20" fill="white" transform="translate(446 183)"/>
</clipPath>
</defs>
</svg>
